<?xml version="1.0" encoding="UTF-8"?>
<svg width="91px" height="43px" viewBox="0 0 91 43" version="1.1" xmlns="http://www.w3.org/2000/svg" xmlns:xlink="http://www.w3.org/1999/xlink">
    <!-- Generator: Sketch 48.2 (47327) - http://www.bohemiancoding.com/sketch -->
    <title>logo2</title>
    <desc>Created with Sketch.</desc>
    <defs></defs>
    <g id="Home" stroke="none" stroke-width="1" fill="none" fill-rule="evenodd" transform="translate(-488.000000, -91.000000)">
        <g id="logo2" transform="translate(488.000000, 91.000000)" fill="#FFFFFF">
            <path d="M11.2460938,42.5859375 C9.23436494,42.5859375 7.42285962,42.2099647 5.81152344,41.4580078 C4.20018726,40.7060509 2.9306687,39.6074291 2.00292969,38.1621094 C1.07519067,36.7167896 0.611328125,34.9980568 0.611328125,33.0058594 C0.611328125,30.0175632 1.66112231,27.8593816 3.76074219,26.53125 C5.86036206,25.2031184 8.69724775,24.5390625 12.2714844,24.5390625 L19.8886719,24.5390625 C19.8886719,22.6445218 19.39063,21.1406306 18.3945312,20.0273438 C17.3984325,18.9140569 15.9726655,18.3574219 14.1171875,18.3574219 C12.5546797,18.3574219 11.1923886,18.7431602 10.0302734,19.5146484 C8.86815825,20.2861367 7.93555039,21.2773377 7.23242188,22.4882812 L1.75390625,18.5332031 C3.25782002,16.4824116 5.00096665,14.9003962 6.98339844,13.7871094 C8.96583022,12.6738226 11.3242051,12.1171875 14.0585938,12.1171875 C16.6757943,12.1171875 18.9365139,12.6249949 20.8408203,13.640625 C22.7451267,14.6562551 24.2001903,16.0820221 25.2060547,17.9179688 C26.2119191,19.7539154 26.7148438,21.8632693 26.7148438,24.2460938 L26.7148438,42 L20.8261719,42 L20.3574219,37.8105469 C19.1660097,39.5488368 17.8183669,40.7792933 16.3144531,41.5019531 C14.8105394,42.224613 13.1211031,42.5859375 11.2460938,42.5859375 Z M12.2714844,36.5507812 C13.599616,36.5507812 14.839838,36.2334016 15.9921875,35.5986328 C17.144537,34.963864 18.0722621,34.1240287 18.7753906,33.0791016 C19.4785191,32.0341745 19.8496092,30.9062561 19.8886719,29.6953125 L12.6816406,29.6953125 C11.1386642,29.6953125 9.96191812,30.037106 9.15136719,30.7207031 C8.34081626,31.4043003 7.93554688,32.2441356 7.93554688,33.2402344 C7.93554688,34.2363331 8.31640244,35.0371063 9.078125,35.6425781 C9.83984756,36.2480499 10.90429,36.5507812 12.2714844,36.5507812 Z M34.2148438,21.7265625 L51.3242188,21.7265625 L51.3242188,27.1171875 L34.2148438,27.1171875 L34.2148438,21.7265625 Z M69.8691406,42.5859375 C67.9550686,42.5859375 66.3095772,42.2343785 64.9326172,41.53125 C63.5556572,40.8281215 62.5009802,39.8271549 61.7685547,38.5283203 C61.0361292,37.2294857 60.6699219,35.6914151 60.6699219,33.9140625 L60.6699219,18.7089844 L55.953125,18.7089844 L55.953125,12.7324219 L60.7871094,12.7324219 L60.7871094,5.46679688 L67.7597656,0.369140625 L67.7597656,12.7324219 L75.1425781,12.7324219 L75.1425781,18.7089844 L67.7597656,18.7089844 L67.7597656,32.6542969 C67.7597656,33.9824285 68.0527314,34.9199191 68.6386719,35.4667969 C69.2246123,36.0136746 70.0351511,36.2871094 71.0703125,36.2871094 C71.7539097,36.2871094 72.4570276,36.1845713 73.1796875,35.9794922 C73.9023474,35.774413 74.5566377,35.5253921 75.1425781,35.2324219 L75.1425781,41.7070312 C74.5371063,41.9414074 73.7412159,42.1464835 72.7548828,42.3222656 C71.7685498,42.4980478 70.8066453,42.5859375 69.8691406,42.5859375 Z M83.1992187,34.265625 L90.3769531,34.265625 L90.3769531,42 L83.1992187,42 L83.1992187,34.265625 Z" id="a-t."></path>
        </g>
    </g>
</svg>