<?xml version="1.0" encoding="UTF-8"?>
<svg width="197px" height="34px" viewBox="0 0 197 34" version="1.1" xmlns="http://www.w3.org/2000/svg" xmlns:xlink="http://www.w3.org/1999/xlink">
    <!-- Generator: Sketch 48.2 (47327) - http://www.bohemiancoding.com/sketch -->
    <title>logo</title>
    <desc>Created with Sketch.</desc>
    <defs></defs>
    <g id="Page-1" stroke="none" stroke-width="1" fill="none" fill-rule="evenodd">
        <g id="logo" fill="#FFFFFF">
            <g id="Group">
                <g>
                    <polygon id="Combined-Shape" points="30.1518114 0.202771417 45.8420843 34 30.1518114 34 14.4769851 0.202771417"></polygon>
                    <rect id="Rectangle-9" transform="translate(6.025641, 28.568966) scale(-1, 1) translate(-6.025641, -28.568966) " x="0" y="23.137931" width="12.0512821" height="10.862069"></rect>
                </g>
            </g>
            <path d="M66.8546218,34 C66.1254611,34 65.4688723,33.8664135 64.8848358,33.5992366 C64.3007992,33.3320597 63.8406561,32.9417097 63.5043927,32.4281749 C63.1681292,31.91464 63,31.3039591 63,30.5961138 C63,29.5343458 63.3805029,28.7675249 64.1415202,28.295628 C64.9025375,27.8237312 65.9307804,27.5877863 67.2262796,27.5877863 L69.9871658,27.5877863 C69.9871658,26.9146392 69.8066481,26.3802934 69.4456073,25.9847328 C69.0845666,25.5891722 68.5677905,25.3913949 67.8952636,25.3913949 C67.3289251,25.3913949 66.8351562,25.5284511 66.4139419,25.8025677 C65.9927277,26.0766842 65.6546995,26.4288667 65.3998472,26.8591256 L63.4141329,25.4538515 C63.9592337,24.7251872 64.5910456,24.1630832 65.3095875,23.7675226 C66.0281294,23.3719619 66.8829337,23.1741846 67.874026,23.1741846 C68.8226429,23.1741846 69.6420516,23.354613 70.3322765,23.7154754 C71.0225015,24.0763377 71.5498963,24.5829253 71.9144767,25.2352533 C72.2790571,25.8875813 72.4613445,26.6370534 72.4613445,27.4836919 L72.4613445,33.7918112 L70.3269672,33.7918112 L70.1570665,32.3032616 C69.7252334,32.9208914 69.2367738,33.3580834 68.691673,33.6148508 C68.1465723,33.8716182 67.534228,34 66.8546218,34 Z M67.2262796,31.8556558 C67.7076673,31.8556558 68.1571917,31.742888 68.5748663,31.5173491 C68.9925409,31.2918101 69.3287993,30.9934092 69.5836516,30.6221374 C69.8385039,30.2508656 69.9730073,29.8501062 69.9871658,29.4198473 L67.3749427,29.4198473 C66.8156835,29.4198473 66.3891662,29.5412896 66.0953782,29.7841777 C65.8015901,30.0270658 65.6546982,30.3254667 65.6546982,30.6793893 C65.6546982,31.033312 65.7927412,31.3178338 66.0688312,31.5329632 C66.3449212,31.7480927 66.7307335,31.8556558 67.2262796,31.8556558 Z M78.6202445,34 C77.317666,34 76.347826,33.5489289 75.7106952,32.6467731 C75.0735644,31.7446173 74.7550038,30.4850879 74.7550038,28.8681471 L74.7550038,23.3927828 L77.3778457,23.3927828 L77.3778457,28.9514226 C77.3778457,29.5621127 77.4309391,30.0652305 77.5371276,30.4607911 C77.643316,30.8563517 77.8362222,31.1616922 78.1158518,31.3768217 C78.3954814,31.5919511 78.7901426,31.6995142 79.2998472,31.6995142 C80.0219287,31.6995142 80.6112659,31.437546 81.0678762,30.9136017 C81.5244866,30.3896573 81.7527884,29.4441429 81.7527884,28.0770298 L81.7527884,23.3927828 L84.386249,23.3927828 L84.386249,33.7918112 L81.7527884,33.7918112 L81.7527884,32.573907 C81.3775892,33.0527435 80.9227554,33.4101307 80.3882735,33.6460791 C79.8537916,33.8820276 79.2644545,34 78.6202445,34 Z M90.6619557,34 C89.9398742,34 89.2726667,33.8698833 88.6603132,33.6096461 C88.0479598,33.3494088 87.5311837,32.9989613 87.1099694,32.5582929 C86.6887552,32.1176244 86.3896622,31.6266509 86.2126814,31.0853574 L88.2727273,30.1901457 C88.4567873,30.6759219 88.7222544,31.0818859 89.0691367,31.40805 C89.4160191,31.734214 89.9044786,31.8972935 90.5345302,31.8972935 C90.9097294,31.8972935 91.2265202,31.8348375 91.4849121,31.7099237 C91.7433041,31.5850098 91.9362102,31.4271349 92.0636364,31.2362942 C92.1910625,31.0454536 92.2547746,30.8528809 92.2547746,30.6585704 C92.2547746,30.4365013 92.1715949,30.2526031 92.005233,30.1068702 C91.8388711,29.9611374 91.6318067,29.8448998 91.3840336,29.7581541 C91.1362605,29.6714083 90.7787648,29.5690499 90.3115355,29.4510756 C89.6106917,29.2706445 89.0355128,29.0867463 88.5859817,28.8993754 C88.1364505,28.7120046 87.7470987,28.4188084 87.4179144,28.0197779 C87.0887302,27.6207475 86.9241406,27.0846668 86.9241406,26.4115198 C86.9241406,25.7106141 87.1046582,25.1172821 87.465699,24.6315059 C87.8267398,24.1457297 88.3063505,23.781403 88.9045455,23.5385149 C89.5027404,23.2956268 90.1557897,23.1741846 90.8637128,23.1741846 C91.7627751,23.1741846 92.555637,23.3719619 93.2423224,23.7675226 C93.9290078,24.1630832 94.4776399,24.7182476 94.8882353,25.4330326 L92.8812834,26.5052047 C92.6618273,26.1165838 92.3875112,25.7990991 92.058327,25.5527412 C91.7291427,25.3063832 91.3026255,25.1832061 90.7787624,25.1832061 C90.368167,25.1832061 90.037218,25.2699506 89.7859053,25.4434421 C89.5345926,25.6169336 89.4089381,25.82859 89.4089381,26.0784178 C89.4089381,26.2727282 89.4868085,26.4358078 89.6425516,26.5676613 C89.7982946,26.6995149 89.9947403,26.807078 90.2318946,26.8903539 C90.4690488,26.9736298 90.8035374,27.0777232 91.2353705,27.2026371 C91.9645313,27.4038872 92.5662569,27.610339 93.0405653,27.8219986 C93.5148738,28.0336582 93.9272328,28.3580825 94.2776547,28.7952811 C94.6280766,29.2324796 94.803285,29.8119325 94.803285,30.5336572 C94.803285,31.2970198 94.6050695,31.9389287 94.2086325,32.4594032 C93.8121956,32.9798777 93.2989591,33.3667579 92.6689076,33.6200555 C92.038856,33.8733531 91.3698788,34 90.6619557,34 Z M100.887853,34 C100.194089,34 99.5976725,33.875088 99.0985867,33.6252602 C98.5995009,33.3754325 98.2172282,33.0197802 97.9517571,32.5582929 C97.6862859,32.0968055 97.5535523,31.5503154 97.5535523,30.9188064 L97.5535523,25.5163081 L95.8439267,25.5163081 L95.8439267,23.3927828 L97.5960275,23.3927828 L97.5960275,20.8112422 L100.1233,19 L100.1233,23.3927828 L102.799236,23.3927828 L102.799236,25.5163081 L100.1233,25.5163081 L100.1233,30.4712006 C100.1233,30.9430974 100.229487,31.2761961 100.441864,31.4705066 C100.654241,31.6648171 100.948025,31.7619709 101.323224,31.7619709 C101.570997,31.7619709 101.825845,31.7255382 102.087777,31.6526718 C102.349708,31.5798053 102.586859,31.491326 102.799236,31.3872311 L102.799236,33.6877169 C102.57978,33.7709928 102.291306,33.8438581 101.933804,33.9063151 C101.576303,33.968772 101.227656,34 100.887853,34 Z M105.124752,19.0832755 L107.821925,19.0832755 L107.821925,21.425399 L105.124752,21.425399 L105.124752,19.0832755 Z M105.188464,23.3927828 L107.758212,23.3927828 L107.758212,33.7918112 L105.188464,33.7918112 L105.188464,23.3927828 Z M110.837662,23.3927828 L113.40741,23.3927828 L113.40741,24.6002776 C113.810926,24.121441 114.292307,23.7640539 114.851566,23.5281055 C115.410825,23.292157 115.973616,23.1741846 116.539954,23.1741846 C117.417779,23.1741846 118.145159,23.3789015 118.722116,23.7883414 C119.299073,24.1977814 119.720281,24.7338621 119.985752,25.3965996 C120.251224,26.0593371 120.383957,26.7758463 120.383957,27.5461485 L120.383957,33.7918112 L117.824828,33.7918112 L117.824828,27.8688411 C117.824828,27.1679354 117.64785,26.6006267 117.293888,26.166898 C116.939927,25.7331692 116.440849,25.5163081 115.796639,25.5163081 C115.039161,25.5163081 114.451594,25.7279646 114.033919,26.1512838 C113.616244,26.5746031 113.40741,27.2234516 113.40741,28.0978487 L113.40741,33.7918112 L110.837662,33.7918112 L110.837662,23.3927828 Z M126.935752,34 C126.241988,34 125.645572,33.875088 125.146486,33.6252602 C124.6474,33.3754325 124.265127,33.0197802 123.999656,32.5582929 C123.734185,32.0968055 123.601451,31.5503154 123.601451,30.9188064 L123.601451,25.5163081 L121.891826,25.5163081 L121.891826,23.3927828 L123.643927,23.3927828 L123.643927,20.8112422 L126.171199,19 L126.171199,23.3927828 L128.847135,23.3927828 L128.847135,25.5163081 L126.171199,25.5163081 L126.171199,30.4712006 C126.171199,30.9430974 126.277386,31.2761961 126.489763,31.4705066 C126.70214,31.6648171 126.995924,31.7619709 127.371123,31.7619709 C127.618896,31.7619709 127.873745,31.7255382 128.135676,31.6526718 C128.397608,31.5798053 128.634758,31.491326 128.847135,31.3872311 L128.847135,33.6877169 C128.627679,33.7709928 128.339205,33.8438581 127.981704,33.9063151 C127.624202,33.968772 127.275556,34 126.935752,34 Z M131.087701,23.3927828 L133.614973,23.3927828 L133.614973,25.1415684 C133.834429,24.5308783 134.209623,24.050314 134.740565,23.6998612 C135.271508,23.3494084 135.844917,23.1741846 136.46081,23.1741846 C136.821851,23.1741846 137.174037,23.2366406 137.51738,23.3615545 C137.860722,23.4864684 138.156276,23.6738364 138.404049,23.9236641 L137.225363,26.0055517 C136.864322,25.7696033 136.47851,25.6516308 136.067914,25.6516308 C135.643161,25.6516308 135.24142,25.7852173 134.862681,26.0523942 C134.483943,26.3195711 134.17777,26.7342095 133.944156,27.296322 C133.710541,27.8584345 133.593736,28.5593296 133.593736,29.3990285 L133.593736,33.7918112 L131.087701,33.7918112 L131.087701,23.3927828 Z M143.331169,34 C142.02859,34 141.05875,33.5489289 140.42162,32.6467731 C139.784489,31.7446173 139.465928,30.4850879 139.465928,28.8681471 L139.465928,23.3927828 L142.08877,23.3927828 L142.08877,28.9514226 C142.08877,29.5621127 142.141863,30.0652305 142.248052,30.4607911 C142.35424,30.8563517 142.547147,31.1616922 142.826776,31.3768217 C143.106406,31.5919511 143.501067,31.6995142 144.010772,31.6995142 C144.732853,31.6995142 145.32219,31.437546 145.778801,30.9136017 C146.235411,30.3896573 146.463713,29.4441429 146.463713,28.0770298 L146.463713,23.3927828 L149.097173,23.3927828 L149.097173,33.7918112 L146.463713,33.7918112 L146.463713,32.573907 C146.088514,33.0527435 145.63368,33.4101307 145.099198,33.6460791 C144.564716,33.8820276 143.975379,34 143.331169,34 Z M156.33919,34 C155.23483,34 154.295076,33.750176 153.519901,33.2505205 C152.744725,32.750865 152.164237,32.0898723 151.778419,31.2675226 C151.392601,30.4451728 151.199694,29.5586446 151.199694,28.6079112 C151.199694,27.6641174 151.392601,26.7775892 151.778419,25.9482998 C152.164237,25.1190104 152.741185,24.4493433 153.509282,23.9392783 C154.277378,23.4292133 155.213593,23.1741846 156.317953,23.1741846 C157.393996,23.1741846 158.32844,23.432683 159.121314,23.9496877 C159.914188,24.4666924 160.508834,25.2317784 160.905271,26.2449688 L158.441711,27.1818182 C158.300127,26.6682833 158.039969,26.2553798 157.66123,25.9430951 C157.282491,25.6308104 156.834736,25.4746704 156.317953,25.4746704 C155.751614,25.4746704 155.282622,25.6221359 154.910963,25.9170715 C154.539303,26.212007 154.266757,26.5971524 154.093316,27.0725191 C153.919874,27.5478858 153.833155,28.059678 153.833155,28.6079112 C153.833155,29.1700236 153.918105,29.6835508 154.088006,30.148508 C154.257908,30.6134652 154.528684,30.9882012 154.900344,31.2727273 C155.272003,31.5572533 155.744535,31.6995142 156.317953,31.6995142 C156.827657,31.6995142 157.273642,31.5485789 157.655921,31.2467037 C158.038199,30.9448285 158.300127,30.5440691 158.441711,30.0444136 L160.799083,30.9188064 C160.445122,31.8903588 159.875252,32.6467704 159.089458,33.1880638 C158.303663,33.7293573 157.386916,34 156.33919,34 Z M162.816654,19.0832755 L165.450115,19.0832755 L165.450115,24.6002776 C165.853631,24.1145014 166.326162,23.7553794 166.867723,23.5229008 C167.409285,23.2904222 167.959687,23.1741846 168.518946,23.1741846 C169.40385,23.1741846 170.140079,23.3789015 170.727655,23.7883414 C171.315231,24.1977814 171.747057,24.7338621 172.023147,25.3965996 C172.299237,26.0593371 172.43728,26.7758463 172.43728,27.5461485 L172.43728,33.7918112 L169.80382,33.7918112 L169.80382,27.8688411 C169.80382,27.1332371 169.665777,26.5503144 169.389687,26.1200555 C169.113597,25.6897966 168.614519,25.4746704 167.892437,25.4746704 C167.092484,25.4746704 166.485449,25.7557224 166.071314,26.3178348 C165.657179,26.8799473 165.450115,27.6155402 165.450115,28.5246357 L165.450115,33.7918112 L162.816654,33.7918112 L162.816654,19.0832755 Z M178.107716,34 C177.378555,34 176.721966,33.8664135 176.13793,33.5992366 C175.553893,33.3320597 175.09375,32.9417097 174.757487,32.4281749 C174.421223,31.91464 174.253094,31.3039591 174.253094,30.5961138 C174.253094,29.5343458 174.633597,28.7675249 175.394614,28.295628 C176.155632,27.8237312 177.183874,27.5877863 178.479374,27.5877863 L181.24026,27.5877863 C181.24026,26.9146392 181.059742,26.3802934 180.698701,25.9847328 C180.337661,25.5891722 179.820884,25.3913949 179.148358,25.3913949 C178.582019,25.3913949 178.08825,25.5284511 177.667036,25.8025677 C177.245822,26.0766842 176.907793,26.4288667 176.652941,26.8591256 L174.667227,25.4538515 C175.212328,24.7251872 175.84414,24.1630832 176.562681,23.7675226 C177.281223,23.3719619 178.136028,23.1741846 179.12712,23.1741846 C180.075737,23.1741846 180.895146,23.354613 181.585371,23.7154754 C182.275596,24.0763377 182.80299,24.5829253 183.167571,25.2352533 C183.532151,25.8875813 183.714439,26.6370534 183.714439,27.4836919 L183.714439,33.7918112 L181.580061,33.7918112 L181.41016,32.3032616 C180.978327,32.9208914 180.489868,33.3580834 179.944767,33.6148508 C179.399666,33.8716182 178.787322,34 178.107716,34 Z M178.479374,31.8556558 C178.960761,31.8556558 179.410286,31.742888 179.82796,31.5173491 C180.245635,31.2918101 180.581893,30.9934092 180.836746,30.6221374 C181.091598,30.2508656 181.226101,29.8501062 181.24026,29.4198473 L178.628037,29.4198473 C178.068777,29.4198473 177.64226,29.5412896 177.348472,29.7841777 C177.054684,30.0270658 176.907792,30.3254667 176.907792,30.6793893 C176.907792,31.033312 177.045835,31.3178338 177.321925,31.5329632 C177.598015,31.7480927 177.983827,31.8556558 178.479374,31.8556558 Z M186.475325,23.3927828 L189.045073,23.3927828 L189.045073,24.6002776 C189.448589,24.121441 189.929969,23.7640539 190.489228,23.5281055 C191.048488,23.292157 191.611278,23.1741846 192.177617,23.1741846 C193.055441,23.1741846 193.782821,23.3789015 194.359778,23.7883414 C194.936736,24.1977814 195.357944,24.7338621 195.623415,25.3965996 C195.888886,26.0593371 196.02162,26.7758463 196.02162,27.5461485 L196.02162,33.7918112 L193.46249,33.7918112 L193.46249,27.8688411 C193.46249,27.1679354 193.285512,26.6006267 192.931551,26.166898 C192.577589,25.7331692 192.078511,25.5163081 191.434301,25.5163081 C190.676823,25.5163081 190.089256,25.7279646 189.671581,26.1512838 C189.253907,26.5746031 189.045073,27.2234516 189.045073,28.0978487 L189.045073,33.7918112 L186.475325,33.7918112 L186.475325,23.3927828 Z" id="austintruchan."></path>
        </g>
    </g>
</svg>