<?xml version="1.0" encoding="UTF-8"?>
<svg width="255px" height="64px" viewBox="0 0 255 64" version="1.1" xmlns="http://www.w3.org/2000/svg" xmlns:xlink="http://www.w3.org/1999/xlink">
    <!-- Generator: Sketch 48.2 (47327) - http://www.bohemiancoding.com/sketch -->
    <title>name-small</title>
    <desc>Created with Sketch.</desc>
    <defs></defs>
    <g id="Mobile" stroke="none" stroke-width="1" fill="none" fill-rule="evenodd" transform="translate(-31.000000, -131.000000)">
        <g id="name-small" transform="translate(31.000000, 131.000000)" fill="#FFFFFF" fill-rule="nonzero">
            <g id="Group-3" transform="translate(0.000000, 40.000000)">
                <polygon id="Fill-1" points="204.376561 10.1406091 196.646093 23.2685721 190.955479 23.2685721 204.376531 0.476054571 217.796642 23.2700722 212.106323 23.2700722"></polygon>
                <polygon id="Fill-1" points="18.6698858 5.74104611 3.27593538 5.70290734 0.430628316 0.842901555 27.157091 0.908743738 13.8498924 23.7670488 11.0047329 18.907295"></polygon>
                <path d="M140.557534,12.3878193 C140.557534,6.37766171 135.616957,1.50546634 129.522446,1.50546634 C123.427936,1.50546634 118.487358,6.37766171 118.487358,12.3878193 C118.487358,18.3979768 123.427936,23.2701722 129.522446,23.2701722 L129.522446,18.417231 C126.145758,18.417231 123.408411,15.7177714 123.408411,12.3878193 C123.408411,9.05786711 126.145758,6.35840751 129.522446,6.35840751 C132.899135,6.35840751 135.636481,9.05786711 135.636481,12.3878193 L140.557534,12.3878193 Z" id="Oval-2"></path>
                <path d="M98.433123,1.21134869 L98.433123,13.4888255 C98.433123,16.322122 96.03994,18.6378193 93.0647019,18.6378193 C90.0894638,18.6378193 87.6962808,16.322122 87.6962808,13.4888255 L87.6962808,1.21134869 L82.7752282,1.21134869 L82.7752282,13.4888255 C82.7752282,19.0231558 87.3923236,23.4907605 93.0647019,23.4907605 C98.7370802,23.4907605 103.354176,19.0231558 103.354176,13.4888255 L103.354176,1.21134869 L98.433123,1.21134869 Z" id="Rectangle-7"></path>
                <polygon id="Path-2" points="255 24.0054663 255 1.22821572 250.078947 1.22821572 250.078947 14.2761285 232.929825 1.54124289 232.929825 23.2870393 237.850877 23.2870393 237.850877 11.2705807"></polygon>
                <g id="Group-14" transform="translate(37.817484, 1.211349)">
                    <path d="M29.6985317,7.35294118 C29.6275949,3.38425274 26.3353495,0.191758837 22.2885056,0.191758837 L0.497436856,0.191758837 L0.497436856,5.04470001 L22.2885056,5.04470001 C23.665647,5.04470001 24.7786474,6.1385605 24.7786474,7.48376236 C24.7786474,8.82896423 23.665647,9.92282471 22.2885056,9.92282471 L11.8474806,9.92282471 L11.9298246,22.0588235 L16.6825374,22.0588235 L16.6825374,14.7757659 L22.2885056,14.7757659 C23.161975,14.7757659 24.0002901,14.6270379 24.7786475,14.3538786 L24.7786475,22.0588235 L29.6997001,22.0588235 L29.6997001,7.35294118 L29.6985317,7.35294118 Z" id="Combined-Shape"></path>
                </g>
                <g id="Group-15" transform="translate(154.199489, 1.211349)">
                    <g id="Group-13" transform="translate(0.564624, 0.176608)">
                        <polygon id="Line-4" points="16.4528181 0.703524756 16.4528181 22.3444023 21.3738707 22.3444023 21.3738707 0.703524756"></polygon>
                        <polygon id="Line-4" points="20.2309197 12.8320974 0.44330578 12.8320974 0.44330578 17.6850385 20.2309197 17.6850385"></polygon>
                        <polygon id="Line-4" points="0.44330578 0.703524756 0.44330578 13.2941314 5.36435841 13.2941314 5.36435841 0.703524756"></polygon>
                        <polygon id="Line-4" points="0.44330578 12.8178705 0.44330578 22.3611356 5.36435841 22.3611356 5.36435841 12.8178705"></polygon>
                    </g>
                </g>
            </g>
            <g id="Group-2">
                <polygon id="Fill-1" points="13.3774612 10.1406091 5.67211865 23.2685721 0 23.2685721 13.3774319 0.476054571 26.7539247 23.2700722 21.0821 23.2700722"></polygon>
                <path d="M58.4734899,1.94664281 L58.4734899,14.2241196 C58.4734899,17.0574161 56.0880852,19.3731134 53.1225172,19.3731134 C50.1569491,19.3731134 47.7715444,17.0574161 47.7715444,14.2241196 L47.7715444,1.94664281 L42.866486,1.94664281 L42.866486,14.2241196 C42.866486,19.75845 47.468575,24.2260546 53.1225172,24.2260546 C58.7764593,24.2260546 63.3785483,19.75845 63.3785483,14.2241196 L63.3785483,1.94664281 L58.4734899,1.94664281 Z" id="Rectangle-7"></path>
                <polygon id="Path-2" points="190.702724 24.7238934 190.702724 1.94664281 185.797665 1.94664281 185.797665 14.9945556 168.70428 2.25966997 168.70428 24.0054663 173.609339 24.0054663 173.609339 11.9890078"></polygon>
                <g id="Group-16" transform="translate(79.491110, 1.211349)">
                    <g id="Group-17">
                        <path d="M7.06031128,9.56744158 L7.06031128,9.55882353 C5.62372624,9.55882353 4.45914397,8.40661516 4.45914397,6.98529412 C4.45914397,5.56397307 5.62372624,4.41176471 7.06031128,4.41176471 C8.49689632,4.41176471 9.6614786,5.56397307 9.6614786,6.98529412 L14.1206226,6.98529412 C14.1206226,3.1274227 10.9596135,0 7.06031128,0 C3.16100903,0 0,3.1274227 0,6.98529412 C0,10.719844 2.96214813,13.7698981 6.68871595,13.9610794 L6.68871595,13.9705882 C8.36592689,13.9705882 9.6614786,15.1608183 9.6614786,16.5441176 C9.6614786,17.927417 8.36592689,19.1176471 6.68871595,19.1176471 L6.68871595,23.5294118 C10.7578452,23.5294118 14.1206226,20.4400108 14.1206226,16.5441176 C14.1206226,12.7674755 10.9605597,9.74870861 7.06031522,9.56744177 L7.06031128,9.56744158 Z" id="Combined-Shape"></path>
                    </g>
                </g>
                <polygon id="Line-3" points="148.132575 1.94664281 148.132575 23.2701722 152.591719 23.2701722 152.591719 1.94664281"></polygon>
                <g id="Group-18" transform="translate(109.724294, 1.946643)">
                    <polygon id="Combined-Shape" points="13.2737609 4.41176471 13.2737609 21.582769 8.81461691 21.582769 8.81461691 4.41176471 0 4.41176471 0 0 21.6170328 0 21.6170328 4.41176471"></polygon>
                </g>
            </g>
        </g>
    </g>
</svg>