<?xml version="1.0" encoding="UTF-8"?>
<svg width="662px" height="33px" viewBox="0 0 662 33" version="1.1" xmlns="http://www.w3.org/2000/svg" xmlns:xlink="http://www.w3.org/1999/xlink">
    <!-- Generator: Sketch 48.2 (47327) - http://www.bohemiancoding.com/sketch -->
    <title>name</title>
    <desc>Created with Sketch.</desc>
    <defs></defs>
    <g id="Home" stroke="none" stroke-width="1" fill="none" fill-rule="evenodd" transform="translate(-185.000000, -307.000000)">
        <g id="name" transform="translate(185.000000, 307.000000)" fill="#FFFFFF" fill-rule="nonzero">
            <polygon id="Fill-1" points="339.895067 7.97625736 319.371059 7.92468285 315.577549 1.35256578 351.210647 1.44160324 333.468803 32.3525658 329.67549 25.7807894"></polygon>
            <path d="M506.969488,16.2 C506.969488,8.0261857 500.343303,1.4 492.169488,1.4 C483.995674,1.4 477.369488,8.0261857 477.369488,16.2 C477.369488,24.3738143 483.995674,31 492.169488,31 L492.169488,24.4 C487.640754,24.4 483.969488,20.7287349 483.969488,16.2 C483.969488,11.6712651 487.640754,8 492.169488,8 C496.698223,8 500.369488,11.6712651 500.369488,16.2 L506.969488,16.2 Z" id="Oval-2"></path>
            <path d="M450,1.35256578 L450,18.0499342 C450,21.9032175 446.79032,25.0525658 442.8,25.0525658 C438.809681,25.0525658 435.6,21.9032175 435.6,18.0499342 L435.6,1.35256578 L429,1.35256578 L429,18.0499342 C429,25.5766235 435.19234,31.6525658 442.8,31.6525658 C450.407661,31.6525658 456.6,25.5766235 456.6,18.0499342 L456.6,1.35256578 L450,1.35256578 Z" id="Rectangle-7"></path>
            <g id="Group-14" transform="translate(367.009470, 1.000000)">
                <path d="M29.8962592,0.352565784 L0.667150607,0.352565784 L0.667150607,6.95256578 L29.8962592,6.95256578 C31.7434663,6.95256578 33.2363719,8.44021605 33.2363719,10.2696906 C33.2363719,12.0991651 31.7434663,13.5868154 29.8962592,13.5868154 L15.891354,13.5868154 L16.0018047,30.3525658 L22.3767816,30.3525658 L22.3767816,20.1868154 L29.8962592,20.1868154 C31.0678737,20.1868154 32.1923346,19.9845454 33.236372,19.6130487 L33.236372,30.3525658 L39.8371488,30.3525658 L39.8371488,10.0917738 C39.7404317,4.69435749 35.3244299,0.352565784 29.8962592,0.352565784 Z" id="Combined-Shape"></path>
            </g>
            <polygon id="Combined-Shape" points="534.6 24.4474245 534.6 31.3753231 528 31.3753231 528 1.35256578 534.6 1.35256578 534.6 17.8474245 549.471581 17.8474245 549.471581 1.35256578 556.071581 1.35256578 556.071581 31.3525658 549.471581 31.3525658 549.471581 24.4474245"></polygon>
            <polygon id="Fill-1" points="18.0000395 13.4963599 7.63211777 31.3503896 0 31.3503896 18 0.352565784 35.9987363 31.3524298 28.3670142 31.3524298"></polygon>
            <polygon id="Fill-1" points="594.000039 13.4963599 583.632118 31.3503896 576 31.3503896 594 0.352565784 611.998736 31.3524298 604.367014 31.3524298"></polygon>
            <path d="M78.6789893,1.35256578 L78.6789893,18.0499342 C78.6789893,21.9032175 75.4693087,25.0525658 71.4789892,25.0525658 C67.4886698,25.0525658 64.2789891,21.9032175 64.2789891,18.0499342 L64.2789891,1.35256578 L57.678989,1.35256578 L57.678989,18.0499342 C57.678989,25.5766235 63.8713288,31.6525658 71.4789892,31.6525658 C79.0866497,31.6525658 85.2789894,25.5766235 85.2789894,18.0499342 L85.2789894,1.35256578 L78.6789893,1.35256578 Z" id="Rectangle-7"></path>
            <polygon id="Path-2" points="257.6 32.3296266 257.6 1.35256578 251 1.35256578 251 19.0977272 228 1.77828273 228 31.3525658 234.6 31.3525658 234.6 15.0101822"></polygon>
            <polygon id="Path-2" points="661.080957 32.3296266 661.080957 1.35256578 654.480957 1.35256578 654.480957 19.0977272 631.480957 1.77828273 631.480957 31.3525658 638.080957 31.3525658 638.080957 15.0101822"></polygon>
            <g id="Group-16" transform="translate(106.959242, 0.000000)">
                <g id="Group-17">
                    <path d="M9.5,13.0117206 L9.5,13 C7.56700338,13 6,11.4329966 6,9.5 C6,7.56700338 7.56700338,6 9.5,6 C11.4329966,6 13,7.56700338 13,9.5 L19,9.5 C19,4.25329488 14.7467051,0 9.5,0 C4.25329488,0 0,4.25329488 0,9.5 C0,14.5789879 3.98571764,18.7270615 9,18.9870679 L9,19 C11.2567707,19 13,20.6187129 13,22.5 C13,24.3812871 11.2567707,26 9,26 L9,32 C14.4752158,32 19,27.7984146 19,22.5 C19,17.3637667 14.7479782,13.2582437 9.50000529,13.0117208 L9.5,13.0117206 Z" id="Combined-Shape"></path>
                </g>
            </g>
            <polygon id="Line-3" points="197 1.35256578 197 31.3525658 203 31.3525658 203 1.35256578"></polygon>
            <g id="Group-18" transform="translate(145.639495, 1.000000)">
                <polygon id="Combined-Shape" points="17.8624749 6.35204139 17.8624749 30.3525658 11.8618133 30.3525658 11.8618133 6.35204139 0 6.35204139 0 0.352565784 29.0900002 0.352565784 29.0900002 6.35204139"></polygon>
            </g>
        </g>
    </g>
</svg>