<?xml version="1.0" encoding="UTF-8"?>
<svg width="656px" height="34px" viewBox="0 0 656 34" version="1.1" xmlns="http://www.w3.org/2000/svg" xmlns:xlink="http://www.w3.org/1999/xlink">
    <!-- Generator: Sketch 48.2 (47327) - http://www.bohemiancoding.com/sketch -->
    <title>name</title>
    <desc>Created with Sketch.</desc>
    <defs></defs>
    <g id="Home" stroke="none" stroke-width="1" fill="none" fill-rule="evenodd" transform="translate(-183.000000, -306.000000)">
        <g id="name" transform="translate(183.000000, 306.000000)" fill="#FFFFFF" fill-rule="nonzero">
            <g id="Group-3" transform="translate(314.000000, 0.000000)">
                <polygon id="Fill-1" points="274.105034 13.7912283 263.737113 31.645258 256.104995 31.645258 274.104995 0.647434216 292.103731 31.6472982 284.472009 31.6472982"></polygon>
                <polygon id="Fill-1" points="25.0396116 7.80782271 4.39360745 7.75595398 0.577548565 1.14634611 36.4224514 1.23589148 18.5751498 32.3231864 14.7592888 25.7139211"></polygon>
                <path d="M188.512457,16.8474342 C188.512457,8.67361992 181.886272,2.04743422 173.712457,2.04743422 C165.538643,2.04743422 158.912457,8.67361992 158.912457,16.8474342 C158.912457,25.0212485 165.538643,31.6474342 173.712457,31.6474342 L173.712457,25.0474342 C169.183722,25.0474342 165.512457,21.3761692 165.512457,16.8474342 C165.512457,12.3186993 169.183722,8.64743422 173.712457,8.64743422 C178.241192,8.64743422 181.912457,12.3186993 181.912457,16.8474342 L188.512457,16.8474342 Z" id="Oval-2"></path>
                <path d="M132.016188,1.64743422 L132.016188,18.3448026 C132.016188,22.1980859 128.806508,25.3474342 124.816188,25.3474342 C120.825869,25.3474342 117.616188,22.1980859 117.616188,18.3448026 L117.616188,1.64743422 L111.016188,1.64743422 L111.016188,18.3448026 C111.016188,25.8714919 117.208528,31.9474342 124.816188,31.9474342 C132.423849,31.9474342 138.616188,25.8714919 138.616188,18.3448026 L138.616188,1.64743422 L132.016188,1.64743422 Z" id="Rectangle-7"></path>
                <polygon id="Path-2" points="342 32.6474342 342 1.67037339 335.4 1.67037339 335.4 19.4155348 312.4 2.09609033 312.4 31.6703734 319 31.6703734 319 15.3279898"></polygon>
                <g id="Group-14" transform="translate(50.719920, 1.647434)">
                    <path d="M39.830972,10 C39.7358332,4.60258373 35.3203511,0.260792019 29.8928193,0.260792019 L0.667150607,0.260792019 L0.667150607,6.86079202 L29.8928193,6.86079202 C31.7398089,6.86079202 33.2325389,8.34844228 33.2325389,10.1779168 C33.2325389,12.0073913 31.7398089,13.4950416 29.8928193,13.4950416 L15.8895623,13.4950416 L16,30 L22.3742266,30 L22.3742266,20.0950416 L29.8928193,20.0950416 C31.0642959,20.0950416 32.1886244,19.8927716 33.232539,19.5212749 L33.232539,30 L39.8325389,30 L39.8325389,10 L39.830972,10 Z" id="Combined-Shape"></path>
                </g>
                <g id="Group-15" transform="translate(206.808726, 1.647434)">
                    <g id="Group-13" transform="translate(0.757261, 0.240187)">
                        <polygon id="Line-4" points="22.0661325 0.956793668 22.0661325 30.3883871 28.6661325 30.3883871 28.6661325 0.956793668"></polygon>
                        <polygon id="Line-4" points="27.1332335 17.4516524 0.594551282 17.4516524 0.594551282 24.0516524 27.1332335 24.0516524"></polygon>
                        <polygon id="Line-4" points="0.594551282 0.956793668 0.594551282 18.0800187 7.19455128 18.0800187 7.19455128 0.956793668"></polygon>
                        <polygon id="Line-4" points="0.594551282 17.4323039 0.594551282 30.4111444 7.19455128 30.4111444 7.19455128 17.4323039"></polygon>
                    </g>
                </g>
            </g>
            <g id="Group-2">
                <polygon id="Fill-1" points="18.0000395 13.7912283 7.63211777 31.645258 0 31.645258 18 0.647434216 35.9987363 31.6472982 28.3670142 31.6472982"></polygon>
                <path d="M78.678989,2.64743422 L78.678989,19.3448026 C78.678989,23.1980859 75.4693084,26.3474342 71.478989,26.3474342 C67.4886697,26.3474342 64.278989,23.1980859 64.278989,19.3448026 L64.278989,2.64743422 L57.678989,2.64743422 L57.678989,19.3448026 C57.678989,26.8714919 63.8713287,32.9474342 71.478989,32.9474342 C79.0866494,32.9474342 85.278989,26.8714919 85.278989,19.3448026 L85.278989,2.64743422 L78.678989,2.64743422 Z" id="Rectangle-7"></path>
                <polygon id="Path-2" points="256.6 33.624495 256.6 2.64743422 250 2.64743422 250 20.3925956 227 3.07315116 227 32.6474342 233.6 32.6474342 233.6 16.3050506"></polygon>
                <g id="Group-16" transform="translate(106.959242, 1.647434)">
                    <g id="Group-17">
                        <path d="M9.5,13.0117206 L9.5,13 C7.56700338,13 6,11.4329966 6,9.5 C6,7.56700338 7.56700338,6 9.5,6 C11.4329966,6 13,7.56700338 13,9.5 L19,9.5 C19,4.25329488 14.7467051,0 9.5,0 C4.25329488,0 0,4.25329488 0,9.5 C0,14.5789879 3.98571764,18.7270615 9,18.9870679 L9,19 C11.2567707,19 13,20.6187129 13,22.5 C13,24.3812871 11.2567707,26 9,26 L9,32 C14.4752158,32 19,27.7984146 19,22.5 C19,17.3637667 14.7479782,13.2582437 9.50000529,13.0117208 L9.5,13.0117206 Z" id="Combined-Shape"></path>
                    </g>
                </g>
                <polygon id="Line-3" points="199.319747 2.64743422 199.319747 31.6474342 205.319747 31.6474342 205.319747 2.64743422"></polygon>
                <g id="Group-18" transform="translate(147.639495, 2.647434)">
                    <polygon id="Combined-Shape" points="17.8605055 6 17.8605055 29.3525658 11.8605055 29.3525658 11.8605055 6 0 6 0 0 29.0867928 0 29.0867928 6"></polygon>
                </g>
            </g>
        </g>
    </g>
</svg>