<?xml version="1.0" encoding="UTF-8"?>
<svg width="664px" height="85px" viewBox="0 0 664 85" version="1.1" xmlns="http://www.w3.org/2000/svg" xmlns:xlink="http://www.w3.org/1999/xlink">
    <!-- Generator: Sketch 48.2 (47327) - http://www.bohemiancoding.com/sketch -->
    <title>name2</title>
    <desc>Created with Sketch.</desc>
    <defs></defs>
    <g id="phase3" stroke="none" stroke-width="1" fill="none" fill-rule="evenodd">
        <g id="name2" fill="#FFFFFF">
            <path d="M5.952,22.2578125 L0.144,22.2578125 L17.392,0.9178125 L22.056,0.9178125 L39.304,22.2578125 L33.496,22.2578125 L29.272,17.1098125 L10.176,17.1098125 L5.952,22.2578125 Z M19.724,5.4938125 L13.828,12.5778125 L25.62,12.5778125 L19.724,5.4938125 Z M108.508002,17.5938125 L136.712002,17.5938125 L136.712002,0.9178125 L141.420002,0.9178125 L141.420002,22.2578125 L106.704002,22.2578125 C106.117332,22.2578125 105.560004,22.1551469 105.032002,21.9498125 C104.503999,21.7444781 104.034671,21.4438145 103.624002,21.0478125 C103.213333,20.6518105 102.883336,20.1678154 102.634002,19.5958125 C102.384667,19.0238096 102.260002,18.356483 102.260002,17.5938125 L102.260002,0.9178125 L106.968002,0.9178125 L106.968002,15.6138125 C106.968002,16.2004821 107.114667,16.677144 107.408002,17.0438125 C107.701337,17.410481 108.068,17.5938125 108.508002,17.5938125 Z M206.400004,17.5938125 L239.180004,17.5938125 C239.620006,17.5938125 240.008669,17.4618138 240.346004,17.1978125 C240.683339,16.9338112 240.852004,16.5084821 240.852004,15.9218125 L240.852004,15.5258125 C240.852004,14.9098094 240.712672,14.4844803 240.434004,14.2498125 C240.155336,14.0151447 239.752006,13.8978125 239.224004,13.8978125 L210.800004,13.8978125 C209.626664,13.8978125 208.600008,13.4944832 207.720004,12.6878125 C206.839999,11.8811418 206.400004,10.72982 206.400004,9.2338125 L206.400004,5.5818125 C206.400004,4.08580502 206.839999,2.9344832 207.720004,2.1278125 C208.600008,1.3211418 209.626664,0.9178125 210.800004,0.9178125 L245.560004,0.9178125 L245.560004,5.5818125 L212.736004,5.5818125 C212.208001,5.5818125 211.804672,5.6918114 211.526004,5.9118125 C211.247336,6.1318136 211.108004,6.54980942 211.108004,7.1658125 L211.108004,7.5618125 C211.108004,8.1484821 211.276669,8.57381118 211.614004,8.8378125 C211.951339,9.10181382 212.340001,9.2338125 212.780004,9.2338125 L241.160004,9.2338125 C242.333343,9.2338125 243.359999,9.65914158 244.240004,10.5098125 C245.120008,11.3604834 245.560004,12.504472 245.560004,13.9418125 L245.560004,17.5938125 C245.560004,19.08982 245.120008,20.2411418 244.240004,21.0478125 C243.359999,21.8544832 242.333343,22.2578125 241.160004,22.2578125 L206.400004,22.2578125 L206.400004,17.5938125 Z M310.540005,5.5818125 L310.540005,0.9178125 L349.700005,0.9178125 L349.700005,5.5818125 L332.452005,5.5818125 L332.452005,22.2578125 L327.744005,22.2578125 L327.744005,5.5818125 L310.540005,5.5818125 Z M453.840007,17.5938125 L453.840007,22.2578125 L414.680007,22.2578125 L414.680007,17.5938125 L431.884007,17.5938125 L431.884007,5.5818125 L414.680007,5.5818125 L414.680007,0.9178125 L453.840007,0.9178125 L453.840007,5.5818125 L436.592007,5.5818125 L436.592007,17.5938125 L453.840007,17.5938125 Z M518.820009,0.9178125 L523.572009,0.9178125 L553.272009,17.1098125 L553.272009,0.9178125 L557.980009,0.9178125 L557.980009,22.2578125 L553.228009,22.2578125 L523.528009,6.0658125 L523.528009,22.2578125 L518.820009,22.2578125 L518.820009,0.9178125 Z M639.240011,0.9178125 L645.092011,0.9178125 L627.844011,22.2578125 L621.904011,22.2578125 L639.240011,0.9178125 Z M1.2,67.5818125 L1.2,62.9178125 L40.36,62.9178125 L40.36,67.5818125 L23.112,67.5818125 L23.112,84.2578125 L18.404,84.2578125 L18.404,67.5818125 L1.2,67.5818125 Z M140.056002,62.9178125 C140.613338,62.9178125 141.163332,63.0278114 141.706002,63.2478125 C142.248671,63.4678136 142.725333,63.7758105 143.136002,64.1718125 C143.546671,64.5678145 143.876667,65.0591429 144.126002,65.6458125 C144.375336,66.2324821 144.500002,66.877809 144.500002,67.5818125 L144.500002,71.2338125 C144.500002,72.4951521 144.184672,73.507142 143.554002,74.2698125 C142.923332,75.032483 142.138673,75.5311447 141.200002,75.7658125 L144.544002,84.2578125 L139.748002,84.2578125 L136.008002,75.8978125 L110.048002,75.8978125 L110.048002,84.2578125 L105.340002,84.2578125 L105.340002,62.9178125 L140.056002,62.9178125 Z M110.048002,67.5818125 L110.048002,71.2338125 L138.120002,71.2338125 C138.560004,71.2338125 138.948667,71.1384801 139.286002,70.9478125 C139.623337,70.7571449 139.792002,70.3684821 139.792002,69.7818125 L139.792002,69.2978125 C139.792002,68.6818094 139.638003,68.2418138 139.330002,67.9778125 C139.022,67.7138112 138.604004,67.5818125 138.076002,67.5818125 L110.048002,67.5818125 Z M215.728004,79.5938125 L243.932004,79.5938125 L243.932004,62.9178125 L248.640004,62.9178125 L248.640004,84.2578125 L213.924004,84.2578125 C213.337334,84.2578125 212.780006,84.1551469 212.252004,83.9498125 C211.724001,83.7444781 211.254672,83.4438145 210.844004,83.0478125 C210.433335,82.6518105 210.103338,82.1678154 209.854004,81.5958125 C209.604669,81.0238096 209.480004,80.356483 209.480004,79.5938125 L209.480004,62.9178125 L214.188004,62.9178125 L214.188004,77.6138125 C214.188004,78.2004821 214.334669,78.677144 214.628004,79.0438125 C214.921338,79.410481 215.288001,79.5938125 215.728004,79.5938125 Z M318.064005,62.9178125 L348.336005,62.9178125 C348.893342,62.9178125 349.443336,63.0278114 349.986005,63.2478125 C350.528675,63.4678136 351.005337,63.7758105 351.416005,64.1718125 C351.826674,64.5678145 352.156671,65.0591429 352.406005,65.6458125 C352.65534,66.2324821 352.780005,66.877809 352.780005,67.5818125 L352.780005,70.7938125 L348.072005,70.7938125 L348.072005,69.5618125 C348.072005,68.9751429 347.932674,68.498481 347.654005,68.1318125 C347.375337,67.765144 346.972008,67.5818125 346.444005,67.5818125 L319.956005,67.5818125 C319.369336,67.5818125 318.95134,67.765144 318.702005,68.1318125 C318.452671,68.498481 318.328005,68.9751429 318.328005,69.5618125 L318.328005,77.6138125 C318.328005,78.2004821 318.474671,78.677144 318.768005,79.0438125 C319.06134,79.410481 319.428003,79.5938125 319.868005,79.5938125 L346.400005,79.5938125 C346.840008,79.5938125 347.22867,79.410481 347.566005,79.0438125 C347.903341,78.677144 348.072005,78.2004821 348.072005,77.6138125 L348.072005,76.3378125 L352.780005,76.3378125 L352.780005,79.5938125 C352.780005,80.356483 352.65534,81.0238096 352.406005,81.5958125 C352.156671,82.1678154 351.826674,82.6518105 351.416005,83.0478125 C351.005337,83.4438145 350.528675,83.7444781 349.986005,83.9498125 C349.443336,84.1551469 348.893342,84.2578125 348.336005,84.2578125 L318.064005,84.2578125 C317.477336,84.2578125 316.920008,84.1551469 316.392005,83.9498125 C315.864003,83.7444781 315.394674,83.4438145 314.984005,83.0478125 C314.573337,82.6518105 314.24334,82.1678154 313.994005,81.5958125 C313.744671,81.0238096 313.620005,80.356483 313.620005,79.5938125 L313.620005,67.5818125 C313.620005,66.8484755 313.744671,66.1884821 313.994005,65.6018125 C314.24334,65.0151429 314.573337,64.5238145 314.984005,64.1278125 C315.394674,63.7318105 315.864003,63.4311469 316.392005,63.2258125 C316.920008,63.0204781 317.477336,62.9178125 318.064005,62.9178125 Z M422.468007,62.9178125 L422.468007,71.2338125 L452.212007,71.2338125 L452.212007,62.9178125 L456.920007,62.9178125 L456.920007,84.2578125 L452.212007,84.2578125 L452.212007,75.8978125 L422.468007,75.8978125 L422.468007,84.2578125 L417.760007,84.2578125 L417.760007,62.9178125 L422.468007,62.9178125 Z M526.652009,84.2578125 L520.844009,84.2578125 L538.092009,62.9178125 L542.756009,62.9178125 L560.004009,84.2578125 L554.196009,84.2578125 L549.972009,79.1098125 L530.876009,79.1098125 L526.652009,84.2578125 Z M540.424009,67.4938125 L534.528009,74.5778125 L546.320009,74.5778125 L540.424009,67.4938125 Z M623.928011,62.9178125 L628.680011,62.9178125 L658.380011,79.1098125 L658.380011,62.9178125 L663.088011,62.9178125 L663.088011,84.2578125 L658.336011,84.2578125 L628.636011,68.0658125 L628.636011,84.2578125 L623.928011,84.2578125 L623.928011,62.9178125 Z" id="austin/-truchan"></path>
        </g>
    </g>
</svg>