<?xml version="1.0" encoding="UTF-8"?>
<svg width="333px" height="86px" viewBox="0 0 333 86" version="1.1" xmlns="http://www.w3.org/2000/svg" xmlns:xlink="http://www.w3.org/1999/xlink">
    <!-- Generator: Sketch 48.2 (47327) - http://www.bohemiancoding.com/sketch -->
    <title>name-small</title>
    <desc>Created with Sketch.</desc>
    <defs></defs>
    <g id="Pages" stroke="none" stroke-width="1" fill="none" fill-rule="evenodd">
        <g id="name-small">
            <polygon id="Fill-1" fill="#FFFFFF" fill-rule="nonzero" points="18.0000395 13.4963599 7.63211777 31.3503896 0 31.3503896 18 0.352565784 35.9987363 31.3524298 28.3670142 31.3524298"></polygon>
            <path d="M76.6789893,1.35256578 L76.6789893,18.0499342 C76.6789893,21.9032175 73.4693087,25.0525658 69.4789892,25.0525658 C65.4886698,25.0525658 62.2789891,21.9032175 62.2789891,18.0499342 L62.2789891,1.35256578 L55.678989,1.35256578 L55.678989,18.0499342 C55.678989,25.5766235 61.8713288,31.6525658 69.4789892,31.6525658 C77.0866497,31.6525658 83.2789894,25.5766235 83.2789894,18.0499342 L83.2789894,1.35256578 L76.6789893,1.35256578 Z" id="Rectangle-7" fill="#FFFFFF" fill-rule="nonzero"></path>
            <polygon id="Path-2" fill="#FFFFFF" fill-rule="nonzero" points="247.6 32.3296266 247.6 1.35256578 241 1.35256578 241 19.0977272 218 1.77828273 218 31.3525658 224.6 31.3525658 224.6 15.0101822"></polygon>
            <g id="Group-17" transform="translate(102.959242, 0.000000)" fill="#FFFFFF" fill-rule="nonzero">
                <path d="M9.5,13.0117206 L9.5,13 C7.56700338,13 6,11.4329966 6,9.5 C6,7.56700338 7.56700338,6 9.5,6 C11.4329966,6 13,7.56700338 13,9.5 L19,9.5 C19,4.25329488 14.7467051,0 9.5,0 C4.25329488,0 0,4.25329488 0,9.5 C0,14.5789879 3.98571764,18.7270615 9,18.9870679 L9,19 C11.2567707,19 13,20.6187129 13,22.5 C13,24.3812871 11.2567707,26 9,26 L9,32 C14.4752158,32 19,27.7984146 19,22.5 C19,17.3637667 14.7479782,13.2582437 9.50000529,13.0117208 L9.5,13.0117206 Z" id="Combined-Shape"></path>
            </g>
            <polygon id="Line-3" fill="#FFFFFF" fill-rule="nonzero" points="189 1.35256578 189 31.3525658 195 31.3525658 195 1.35256578"></polygon>
            <polygon id="Combined-Shape" fill="#FFFFFF" fill-rule="nonzero" points="157.501969 7.35204139 157.501969 31.3525658 151.501308 31.3525658 151.501308 7.35204139 139.639495 7.35204139 139.639495 1.35256578 168.729495 1.35256578 168.729495 7.35204139"></polygon>
            <g id="Group-14" transform="translate(50.009470, 48.625000)"></g>
            <g id="Group-8" transform="translate(0.000000, 53.000000)" fill="#FFFFFF" fill-rule="nonzero">
                <polygon id="Fill-1" points="24.5435045 8.24869158 4.01949613 8.19711707 0.225986065 1.625 35.859084 1.71403745 18.1172408 32.625 14.3239274 26.0532236"></polygon>
                <path d="M185.617926,16.4724342 C185.617926,8.29861992 178.99174,1.67243422 170.817926,1.67243422 C162.644112,1.67243422 156.017926,8.29861992 156.017926,16.4724342 C156.017926,24.6462485 162.644112,31.2724342 170.817926,31.2724342 L170.817926,24.6724342 C166.289191,24.6724342 162.617926,21.0011692 162.617926,16.4724342 C162.617926,11.9436993 166.289191,8.27243422 170.817926,8.27243422 C175.346661,8.27243422 179.017926,11.9436993 179.017926,16.4724342 L185.617926,16.4724342 Z" id="Oval-2"></path>
                <path d="M130.648438,1.625 L130.648438,18.3223684 C130.648438,22.1756517 127.438757,25.325 123.448438,25.325 C119.458118,25.325 116.248438,22.1756517 116.248438,18.3223684 L116.248438,1.625 L109.648438,1.625 L109.648438,18.3223684 C109.648438,25.8490577 115.840777,31.925 123.448438,31.925 C131.056098,31.925 137.248438,25.8490577 137.248438,18.3223684 L137.248438,1.625 L130.648438,1.625 Z" id="Rectangle-7"></path>
                <path d="M79.5541671,1.625 L50.3250585,1.625 L50.3250585,8.225 L79.5541671,8.225 C81.4013742,8.225 82.8942798,9.71265026 82.8942798,11.5421248 C82.8942798,13.3715993 81.4013742,14.8592496 79.5541671,14.8592496 L65.5492619,14.8592496 L65.6597126,31.625 L72.0346895,31.625 L72.0346895,21.4592496 L79.5541671,21.4592496 C80.7257816,21.4592496 81.8502425,21.2569796 82.8942799,20.8854829 L82.8942799,31.625 L89.4950567,31.625 L89.4950567,11.364208 C89.3983396,5.96679171 84.9823378,1.625 79.5541671,1.625 Z" id="Combined-Shape"></path>
                <polygon id="Combined-Shape" points="211.248437 24.7198587 211.248437 31.6477573 204.648437 31.6477573 204.648437 1.625 211.248437 1.625 211.248437 18.1198587 226.120019 18.1198587 226.120019 1.625 232.720019 1.625 232.720019 31.625 226.120019 31.625 226.120019 24.7198587"></polygon>
                <polygon id="Fill-1" points="268.648477 13.7687941 258.280555 31.6228238 250.648438 31.6228238 268.648438 0.625 286.647174 31.624864 279.015452 31.624864"></polygon>
                <polygon id="Path-2" points="332.729395 32.6020608 332.729395 1.625 326.129395 1.625 326.129395 19.3701614 303.129395 2.05071695 303.129395 31.625 309.729395 31.625 309.729395 15.2826164"></polygon>
            </g>
        </g>
    </g>
</svg>