<?xml version="1.0" encoding="UTF-8"?>
<svg width="663px" height="32px" viewBox="0 0 663 32" version="1.1" xmlns="http://www.w3.org/2000/svg" xmlns:xlink="http://www.w3.org/1999/xlink">
    <!-- Generator: Sketch 48.2 (47327) - http://www.bohemiancoding.com/sketch -->
    <title>name</title>
    <desc>Created with Sketch.</desc>
    <defs></defs>
    <g id="Home" stroke="none" stroke-width="1" fill="none" fill-rule="evenodd" transform="translate(-184.000000, -328.000000)">
        <g id="name" transform="translate(184.000000, 328.000000)" fill="#FFFFFF" fill-rule="nonzero">
            <polygon id="Fill-1" points="18.0000395 13.1437941 7.63211777 30.9978238 0 30.9978238 18 0 35.9987363 30.999864 28.3670142 30.999864"></polygon>
            <path d="M79.0000003,1 L79.0000003,17.6973684 C79.0000003,21.5506517 75.7903196,24.7 71.8000002,24.7 C67.8096808,24.7 64.6000001,21.5506517 64.6000001,17.6973684 L64.6000001,1 L58,1 L58,17.6973684 C58,25.2240577 64.1923397,31.3 71.8000002,31.3 C79.4076607,31.3 85.6000004,25.2240577 85.6000004,17.6973684 L85.6000004,1 L79.0000003,1 Z" id="Rectangle-7"></path>
            <polygon id="Path-2" points="259.6 31.9770608 259.6 1 253 1 253 18.7451614 230 1.42571695 230 31 236.6 31 236.6 14.6576164"></polygon>
            <path d="M118.5,13.0117206 L118.5,13 C116.567003,13 115,11.4329966 115,9.5 C115,7.56700338 116.567003,6 118.5,6 C120.432997,6 122,7.56700338 122,9.5 L128,9.5 C128,4.25329488 123.746705,0 118.5,0 C113.253295,0 109,4.25329488 109,9.5 C109,14.5789879 112.985718,18.7270615 118,18.9870679 L118,19 C120.256771,19 122,20.6187129 122,22.5 C122,24.3812871 120.256771,26 118,26 L118,32 C123.475216,32 128,27.7984146 128,22.5 C128,17.3637667 123.747978,13.2582437 118.500005,13.0117208 L118.5,13.0117206 Z" id="Combined-Shape"></path>
            <polygon id="Line-3" points="202 1 202 31 208 31 208 1"></polygon>
            <polygon id="Combined-Shape" points="167.862475 7.35204139 167.862475 31.3525658 161.861813 31.3525658 161.861813 7.35204139 150 7.35204139 150 1.35256578 179.09 1.35256578 179.09 7.35204139"></polygon>
            <polygon id="Fill-1" points="344.317518 7.62369158 323.79351 7.57211707 320 1 355.633098 1.08903745 337.891255 32 334.097941 25.4282236"></polygon>
            <path d="M509.6,15.8 C509.6,7.6261857 502.973814,1 494.8,1 C486.626186,1 480,7.6261857 480,15.8 C480,23.9738143 486.626186,30.6 494.8,30.6 L494.8,24 C490.271265,24 486.6,20.3287349 486.6,15.8 C486.6,11.2712651 490.271265,7.6 494.8,7.6 C499.328735,7.6 503,11.2712651 503,15.8 L509.6,15.8 Z" id="Oval-2"></path>
            <path d="M454,1 L454,17.6973684 C454,21.5506517 450.79032,24.7 446.8,24.7 C442.809681,24.7 439.6,21.5506517 439.6,17.6973684 L439.6,1 L433,1 L433,17.6973684 C433,25.2240577 439.19234,31.3 446.8,31.3 C454.407661,31.3 460.6,25.2240577 460.6,17.6973684 L460.6,1 L454,1 Z" id="Rectangle-7"></path>
            <path d="M402.554167,1.125 L373.5,1 L370,7.5 L402.554167,7.725 C404.401374,7.725 405.89428,9.21265026 405.89428,11.0421248 C405.89428,12.8715993 404.401374,14.3592496 402.554167,14.3592496 L388.549262,14.3592496 L388.659713,31.125 L395.034689,31.125 L395.034689,20.9592496 L402.554167,20.9592496 C403.725782,20.9592496 404.850242,20.7569796 405.89428,20.3854829 L405.89428,31.125 L412.495057,31.125 L412.495057,10.864208 C412.39834,5.46679171 407.982338,1.125 402.554167,1.125 Z" id="Combined-Shape"></path>
            <polygon id="Combined-Shape" points="535.6 24.0948587 535.6 31.0227573 529 31.0227573 529 1 535.6 1 535.6 17.4948587 550.471581 17.4948587 550.471581 1 557.071581 1 557.071581 31 550.471581 31 550.471581 24.0948587"></polygon>
            <polygon id="Fill-1" points="595.000039 13.1437941 584.632118 30.9978238 577 30.9978238 595 0 612.998736 30.999864 605.367014 30.999864"></polygon>
            <polygon id="Path-2" points="662.6 31.9770608 662.6 1 656 1 656 18.7451614 633 1.42571695 633 31 639.6 31 639.6 14.6576164"></polygon>
        </g>
    </g>
</svg>