<?xml version="1.0" standalone="no"?>
<!DOCTYPE svg PUBLIC "-//W3C//DTD SVG 1.1//EN" "http://www.w3.org/Graphics/SVG/1.1/DTD/svg11.dtd" >
<svg xmlns="http://www.w3.org/2000/svg" xmlns:xlink="http://www.w3.org/1999/xlink" version="1.1">
<metadata></metadata>
<defs>
<font id="bjornregular" horiz-adv-x="1496" >
<font-face units-per-em="2048" ascent="1638" descent="-410" />
<missing-glyph horiz-adv-x="508" />
<glyph unicode="&#xd;" horiz-adv-x="508" />
<glyph horiz-adv-x="0" />
<glyph horiz-adv-x="0" />
<glyph unicode=" "  horiz-adv-x="508" />
<glyph unicode="&#x09;" horiz-adv-x="508" />
<glyph unicode="&#xa0;" horiz-adv-x="508" />
<glyph unicode="!" horiz-adv-x="436" d="M80 138q0 -57 40 -98q41 -40 98 -40t98 40q40 41 40 98t-40 98q-41 40 -98 40t-98 -40q-40 -41 -40 -98zM80 414h276v1021h-276v-1021z" />
<glyph unicode="&#x22;" horiz-adv-x="657" d="M80 994h221v441h-221v-441zM356 994h221v441h-221v-441z" />
<glyph unicode="#" horiz-adv-x="1540" d="M80 331h231l-38 -331h276l38 331h276l-38 -331h276l38 331h293v276h-261l22 193h267v276h-235l42 359h-276l-42 -359h-276l42 359h-276l-42 -359h-289v-276h257l-22 -193h-263v-276zM619 607l22 193h276l-22 -193h-276z" />
<glyph unicode="$" horiz-adv-x="1037" d="M80 924q0 -142 101 -243q101 -102 244 -102h187q29 0 49 -20t20 -49q0 -28 -20 -48q-20 -21 -49 -21h-489v-275h290v-166h221v166q135 9 229 108q94 100 94 236q0 143 -101 244t-244 101h-187q-29 0 -49 21q-20 20 -20 48q0 29 20 49t49 20h499v276h-290v166h-221v-166 q-139 -5 -236 -105t-97 -240z" />
<glyph unicode="%" horiz-adv-x="1595" d="M80 924q0 -131 93 -224t224 -93q184 0 276 160l-207 -767h276l139 515q9 -123 100 -209q91 -85 217 -85q131 0 224 93t93 224t-93 224t-224 93q-168 0 -263 -139l194 719h-276l-138 -513v2q0 132 -93 225t-225 93q-131 0 -224 -93t-93 -225zM301 924q0 40 28 69 q28 28 68 28t69 -28q28 -29 28 -69t-28 -68q-29 -28 -69 -28t-68 28t-28 68zM1101 538q0 40 28 68q29 29 69 29q39 0 68 -29q28 -28 28 -68t-28 -68q-29 -28 -68 -28q-40 0 -69 28q-28 28 -28 68z" />
<glyph unicode="&#x26;" horiz-adv-x="1471" d="M80 428q0 -177 125 -303q126 -125 303 -125h662v579h221v276h-221v166h-276v-166h-386q-63 0 -108 45q-44 44 -44 107t44 107q45 45 108 45h524v276h-524q-177 0 -303 -126q-125 -125 -125 -302q0 -167 113 -290q-113 -122 -113 -289zM356 428q0 62 44 107q45 44 108 44 h386v-303h-386q-63 0 -108 44q-44 45 -44 108z" />
<glyph unicode="'" horiz-adv-x="381" d="M80 994h221v441h-221v-441z" />
<glyph unicode="(" horiz-adv-x="822" d="M80 169q0 -274 194 -468t468 -194v276q-160 0 -273 113t-113 273v1099q0 160 113 273t273 113v276q-274 0 -468 -194t-194 -468v-1099z" />
<glyph unicode=")" horiz-adv-x="822" d="M80 -218v-276q274 0 468 194t194 468v1099q0 274 -194 468t-468 194v-276q160 0 273 -113t113 -273v-1099q0 -160 -113 -273t-273 -113z" />
<glyph unicode="*" horiz-adv-x="355" d="M80 1314l27 -48l43 24v-49h55v49l43 -24l27 48l-41 24l41 23l-27 48l-43 -24v49h-55v-49l-43 24l-27 -48l42 -23z" />
<glyph unicode="+" horiz-adv-x="1098" d="M80 579h331v-331h276v331h331v276h-331v331h-276v-331h-331v-276z" />
<glyph unicode="," horiz-adv-x="519" d="M80 -166h221l138 441h-276z" />
<glyph unicode="-" horiz-adv-x="1098" d="M80 580h938v276h-938v-276z" />
<glyph unicode="." horiz-adv-x="436" d="M80 138q0 -57 40 -98q41 -40 98 -40t98 40q40 41 40 98t-40 98q-41 40 -98 40t-98 -40q-40 -41 -40 -98z" />
<glyph unicode="/" horiz-adv-x="820" d="M80 0h276l384 1435h-276z" />
<glyph unicode="0" horiz-adv-x="1595" d="M80 717q0 -297 210 -507t507 -210q298 0 508 210t210 507q0 298 -210 508t-508 210q-297 0 -507 -210t-210 -508zM356 717q0 183 129 312q130 130 312 130q183 0 312 -130q130 -129 130 -312q0 -182 -130 -312q-129 -129 -312 -129q-182 0 -312 129q-129 130 -129 312z " />
<glyph unicode="1" horiz-adv-x="436" d="M80 0h276v1435h-276v-1435z" />
<glyph unicode="2" horiz-adv-x="1263" d="M80 883q0 -228 161 -390l195 195q-80 81 -80 195q0 115 80 195q81 81 195 81q115 0 195 -81q81 -81 81 -195t-81 -194l-696 -689h1053v276h-381l219 217q162 162 162 390q0 229 -162 390q-161 162 -390 162q-228 0 -390 -162q-161 -161 -161 -390z" />
<glyph unicode="3" horiz-adv-x="1167" d="M80 0h579q177 0 303 125q125 126 125 303q0 167 -113 289q113 123 113 290q0 177 -125 302q-126 126 -303 126h-579v-276h579q63 0 108 -45q44 -44 44 -107t-44 -107q-45 -45 -108 -45h-220v-276h220q63 0 108 -44q44 -45 44 -107q0 -63 -44 -108q-45 -44 -108 -44h-579 v-276z" />
<glyph unicode="4" horiz-adv-x="1363" d="M80 166h762v-166h276v166h165v275h-165v166h-276v-166h-342l429 994h-301z" />
<glyph unicode="5" horiz-adv-x="1181" d="M80 0h579q183 0 313 129q129 130 129 313q0 182 -129 312q-130 129 -313 129h-303v276h662v276h-938v-828h579q69 0 117 -48q49 -49 49 -117q0 -69 -49 -118q-48 -48 -117 -48h-579v-276z" />
<glyph unicode="6" horiz-adv-x="1209" d="M80 497h1q11 -208 162 -352q152 -145 361 -145q217 0 371 154q154 153 154 370t-154 371t-371 154q-132 0 -248 -63v449h-276v-938zM356 524q0 103 73 176t175 73q103 0 176 -73t73 -176q0 -102 -73 -175t-176 -73q-102 0 -175 73t-73 175z" />
<glyph unicode="7" horiz-adv-x="1296" d="M80 1159h740l-429 -1159h294l531 1435h-1136v-276z" />
<glyph unicode="8" horiz-adv-x="1153" d="M80 497q0 -206 146 -351q145 -146 351 -146q205 0 351 146q145 145 145 351q0 242 -191 391q53 86 53 188q0 149 -105 254t-253 105q-149 0 -254 -105t-105 -254q0 -102 53 -188q-191 -149 -191 -391zM356 497q0 91 65 156q64 64 156 64q91 0 156 -64q64 -65 64 -156 q0 -92 -64 -156q-65 -65 -156 -65q-92 0 -156 65q-65 64 -65 156zM494 1076q0 34 24 59q24 24 59 24q34 0 58 -24q24 -25 24 -59t-24 -58q-24 -25 -58 -25q-35 0 -59 25q-24 24 -24 58z" />
<glyph unicode="9" horiz-adv-x="1209" d="M80 911q0 -217 154 -371q153 -154 370 -154q133 0 249 63v-449h276v938h-1q-11 208 -162 352q-152 145 -362 145q-217 0 -370 -154q-154 -154 -154 -370zM356 911q0 102 73 175t175 73q103 0 176 -73t73 -175q0 -103 -73 -176t-176 -73q-102 0 -175 73t-73 176z" />
<glyph unicode=":" horiz-adv-x="436" d="M80 138q0 -57 40 -98q41 -40 98 -40t98 40q40 41 40 98t-40 98q-41 40 -98 40t-98 -40q-40 -41 -40 -98zM80 552q0 -57 40 -98q41 -40 98 -40t98 40q40 41 40 98t-40 97q-41 41 -98 41t-98 -41q-40 -40 -40 -97z" />
<glyph unicode=";" horiz-adv-x="519" d="M80 -166h221l138 441h-276zM163 551q0 -57 40 -97q41 -41 98 -41t97 41q41 40 41 97q0 58 -41 98q-40 40 -97 40t-98 -40q-40 -40 -40 -98z" />
<glyph unicode="&#x3c;" horiz-adv-x="760" d="M80 727l405 -405l195 195l-210 210l210 210l-195 195z" />
<glyph unicode="=" horiz-adv-x="1098" d="M80 388h938v276h-938v-276zM80 774h938v276h-938v-276z" />
<glyph unicode="&#x3e;" horiz-adv-x="760" d="M80 515l195 -195l405 405l-405 405l-195 -195l210 -210z" />
<glyph unicode="?" horiz-adv-x="1031" d="M80 1000h276q0 65 47 112q46 47 112 47t113 -47t47 -112q0 -66 -47 -113t-113 -47h-138v-426h276v173q132 43 214 156q84 114 84 257q0 180 -128 307q-128 128 -308 128t-307 -128q-128 -127 -128 -307zM371 138q0 -57 41 -98q40 -40 97 -40t98 40q40 41 40 98t-40 98 q-41 40 -98 40t-97 -40q-41 -41 -41 -98z" />
<glyph unicode="@" horiz-adv-x="1653" d="M80 706q2 -138 57 -266q53 -129 150 -227l6 -5q5 -6 6 -6q115 -112 269 -164q113 -38 230 -38q167 0 318 75l-122 247q-164 -81 -337 -22q-174 58 -255 222q-6 12 -11 25q-6 13 -10 25q-24 68 -25 139q0 -4 0 3v7q1 70 23 138q5 12 10 25q5 14 11 26q31 64 80 115l3 3 q4 3 4 4q51 50 115 81q15 8 30 14l20 8q20 6 40 11q4 2 3 1q1 0 4 1q231 53 403 -110v-1q3 -2 6 -5l3 -3l3 -3q150 -154 121 -366l-79 38q4 70 -19 138q-49 140 -183 205q-134 64 -274 16q-141 -49 -205 -183q-65 -134 -16 -274q49 -141 183 -205q74 -36 155 -36 q137 0 239 91l348 -168l60 124q129 267 31 548q-53 154 -166 268q-1 0 -6 6q-7 6 -6 6q-99 95 -228 148t-267 54h-16q-138 -3 -266 -57q-129 -54 -227 -150q0 -1 -6 -7t-5 -5q-96 -99 -149 -229q-52 -128 -53 -266v-16zM668 672q-19 54 6 106q24 51 78 70q23 8 46 8 q31 0 60 -14q51 -25 70 -79t-6 -105q-25 -52 -79 -70q-54 -19 -105 6q-52 24 -70 78z" />
<glyph unicode="A" d="M80 0h302l74 166h584l74 -166h302l-668 1498zM579 441l169 379l169 -379h-338z" />
<glyph unicode="B" horiz-adv-x="1291" d="M80 0h676q188 0 322 134q133 133 133 321q0 196 -142 331q87 109 87 249q0 165 -117 283q-117 117 -283 117h-676v-1435zM356 276v359h400q74 0 127 -53q52 -53 52 -127t-52 -126q-53 -53 -127 -53h-400zM356 911v248h400q51 0 88 -36q36 -37 36 -88q0 -52 -36 -88 q-37 -36 -88 -36h-400z" />
<glyph unicode="C" horiz-adv-x="1385" d="M80 717q0 -297 210 -507t507 -210q298 0 508 210l-195 195q-130 -129 -313 -129q-182 0 -312 129q-129 129 -129 312q0 184 129 313t312 129q184 0 313 -129l195 195q-210 210 -508 210q-297 0 -507 -210t-210 -508z" />
<glyph unicode="D" horiz-adv-x="1319" d="M80 0h441q298 0 508 210t210 507q0 298 -210 508t-508 210h-441v-1435zM356 276v883h165q183 0 313 -130q129 -129 129 -312q0 -182 -129 -312q-130 -129 -313 -129h-165z" />
<glyph unicode="E" horiz-adv-x="1264" d="M80 0h1104v276h-828v303h579v276h-579v304h828v276h-1104v-1435z" />
<glyph unicode="F" horiz-adv-x="1264" d="M80 0h276v579h579v276h-579v304h828v276h-1104v-1435z" />
<glyph unicode="G" horiz-adv-x="1425" d="M80 717q0 -297 210 -507t507 -210q298 0 508 210l40 41v604h-603v-276h327v-210q-119 -93 -272 -93q-182 0 -312 129q-129 129 -129 312q0 184 129 313q130 129 312 129q183 0 313 -129l195 195q-210 210 -508 210q-297 0 -507 -210t-210 -508z" />
<glyph unicode="H" horiz-adv-x="1319" d="M80 0h276v579h607v-579h276v1435h-276v-580h-607v580h-276v-1435z" />
<glyph unicode="I" horiz-adv-x="436" d="M80 0h276v1435h-276v-1435z" />
<glyph unicode="J" horiz-adv-x="877" d="M80 0q297 0 507 210t210 507v718h-717v-276h442v-442q0 -182 -130 -312q-129 -129 -312 -129v-276z" />
<glyph unicode="K" horiz-adv-x="1367" d="M80 0h276v468l131 139l455 -607h345l-607 810l592 625h-380l-536 -566v566h-276v-1435z" />
<glyph unicode="L" horiz-adv-x="1291" d="M80 0h1131v276h-855v1159h-276v-1435z" />
<glyph unicode="M" horiz-adv-x="1705" d="M80 0h276v826l497 -497l496 497v-826h276v1492l-772 -773l-773 773v-1492z" />
<glyph unicode="N" horiz-adv-x="1374" d="M80 1h276v853l938 -938v1520h-276v-854l-938 938v-1519z" />
<glyph unicode="O" horiz-adv-x="1595" d="M80 717q0 -297 210 -507t507 -210q298 0 508 210t210 507q0 298 -210 508t-508 210q-297 0 -507 -210t-210 -508zM356 717q0 183 129 312q130 130 312 130q183 0 312 -130q130 -129 130 -312q0 -182 -130 -312q-129 -129 -312 -129q-182 0 -312 129q-129 130 -129 312z " />
<glyph unicode="P" horiz-adv-x="1291" d="M80 0h276v524h400q188 0 322 134q133 133 133 322q0 188 -133 321q-134 134 -322 134h-676v-1435zM356 800v359h400q74 0 127 -53q52 -52 52 -126q0 -75 -52 -127q-53 -53 -127 -53h-400z" />
<glyph unicode="Q" horiz-adv-x="1634" d="M80 717q0 -297 210 -507t507 -210q222 0 403 124l93 -124h345l-242 322q119 179 119 395q0 298 -210 508t-508 210q-297 0 -507 -210t-210 -508zM356 717q0 183 129 312q130 130 312 130q183 0 312 -130q130 -129 130 -312q0 -182 -130 -312q-129 -129 -312 -129 q-182 0 -312 129q-129 130 -129 312z" />
<glyph unicode="R" horiz-adv-x="1332" d="M80 0h276v524h158l393 -524h345l-401 534q156 33 257 157q103 126 103 289q0 188 -133 321q-134 134 -322 134h-676v-1435zM356 800v359h400q74 0 127 -53q52 -52 52 -126q0 -75 -52 -127q-53 -53 -127 -53h-400z" />
<glyph unicode="S" horiz-adv-x="1278" d="M80 1007q0 -177 125 -302q126 -126 303 -126h262q63 0 107 -44q45 -45 45 -107q0 -63 -45 -108q-44 -44 -107 -44h-607v-276h607q177 0 302 125q126 126 126 303t-126 302q-125 125 -302 125h-262q-63 0 -108 45q-44 44 -44 107t44 107q45 45 108 45h621v276h-621 q-177 0 -303 -126q-125 -125 -125 -302z" />
<glyph unicode="T" horiz-adv-x="1264" d="M80 1159h414v-1159h276v1159h414v276h-1104v-276z" />
<glyph unicode="U" horiz-adv-x="1402" d="M80 621q0 -257 182 -439t439 -182t439 182t182 439v814h-276v-814q0 -143 -101 -244t-244 -101t-244 101t-101 244v814h-276v-814z" />
<glyph unicode="V" d="M80 1434l668 -1498l668 1498h-302l-366 -821l-366 821h-302z" />
<glyph unicode="W" horiz-adv-x="2021" d="M80 1434l668 -1498l262 588l262 -588l669 1498h-303l-366 -821l-107 241l-153 348l-156 -348l-108 -241l-366 821h-302z" />
<glyph unicode="X" horiz-adv-x="1449" d="M80 0h332l312 469l313 -469h332l-479 717l479 718h-332l-313 -469l-312 469h-332l479 -718z" />
<glyph unicode="Y" horiz-adv-x="1469" d="M80 1435l517 -893v-542h276v542l516 893h-319l-335 -580l-336 580h-319z" />
<glyph unicode="Z" horiz-adv-x="1373" d="M80 0h1186v276h-691l718 1159h-1158v-276h662z" />
<glyph unicode="_" horiz-adv-x="1098" d="M80 0h938v276h-938v-276z" />
<glyph unicode="`" horiz-adv-x="519" d="M80 998h221l138 441h-276z" />
<glyph unicode="a" d="M80 0h302l74 166h584l74 -166h302l-668 1498zM579 441l169 379l169 -379h-338z" />
<glyph unicode="b" horiz-adv-x="1291" d="M80 0h676q188 0 322 134q133 133 133 321q0 196 -142 331q87 109 87 249q0 165 -117 283q-117 117 -283 117h-676v-1435zM356 276v359h400q74 0 127 -53q52 -53 52 -127t-52 -126q-53 -53 -127 -53h-400zM356 911v248h400q51 0 88 -36q36 -37 36 -88q0 -52 -36 -88 q-37 -36 -88 -36h-400z" />
<glyph unicode="c" horiz-adv-x="1385" d="M80 717q0 -297 210 -507t507 -210q298 0 508 210l-195 195q-130 -129 -313 -129q-182 0 -312 129q-129 129 -129 312q0 184 129 313t312 129q184 0 313 -129l195 195q-210 210 -508 210q-297 0 -507 -210t-210 -508z" />
<glyph unicode="d" horiz-adv-x="1319" d="M80 0h441q298 0 508 210t210 507q0 298 -210 508t-508 210h-441v-1435zM356 276v883h165q183 0 313 -130q129 -129 129 -312q0 -182 -129 -312q-130 -129 -313 -129h-165z" />
<glyph unicode="e" horiz-adv-x="1264" d="M80 0h1104v276h-828v303h579v276h-579v304h828v276h-1104v-1435z" />
<glyph unicode="f" horiz-adv-x="1264" d="M80 0h276v579h579v276h-579v304h828v276h-1104v-1435z" />
<glyph unicode="g" horiz-adv-x="1425" d="M80 717q0 -297 210 -507t507 -210q298 0 508 210l40 41v604h-603v-276h327v-210q-119 -93 -272 -93q-182 0 -312 129q-129 129 -129 312q0 184 129 313q130 129 312 129q183 0 313 -129l195 195q-210 210 -508 210q-297 0 -507 -210t-210 -508z" />
<glyph unicode="h" horiz-adv-x="1319" d="M80 0h276v579h607v-579h276v1435h-276v-580h-607v580h-276v-1435z" />
<glyph unicode="i" horiz-adv-x="436" d="M80 0h276v1435h-276v-1435z" />
<glyph unicode="j" horiz-adv-x="877" d="M80 0q297 0 507 210t210 507v718h-717v-276h442v-442q0 -182 -130 -312q-129 -129 -312 -129v-276z" />
<glyph unicode="k" horiz-adv-x="1367" d="M80 0h276v468l131 139l455 -607h345l-607 810l592 625h-380l-536 -566v566h-276v-1435z" />
<glyph unicode="l" horiz-adv-x="1291" d="M80 0h1131v276h-855v1159h-276v-1435z" />
<glyph unicode="m" horiz-adv-x="1705" d="M80 0h276v826l497 -497l496 497v-826h276v1492l-772 -773l-773 773v-1492z" />
<glyph unicode="n" horiz-adv-x="1374" d="M80 1h276v853l938 -938v1520h-276v-854l-938 938v-1519z" />
<glyph unicode="o" horiz-adv-x="1595" d="M80 717q0 -297 210 -507t507 -210q298 0 508 210t210 507q0 298 -210 508t-508 210q-297 0 -507 -210t-210 -508zM356 717q0 183 129 312q130 130 312 130q183 0 312 -130q130 -129 130 -312q0 -182 -130 -312q-129 -129 -312 -129q-182 0 -312 129q-129 130 -129 312z " />
<glyph unicode="p" horiz-adv-x="1291" d="M80 0h276v524h400q188 0 322 134q133 133 133 322q0 188 -133 321q-134 134 -322 134h-676v-1435zM356 800v359h400q74 0 127 -53q52 -52 52 -126q0 -75 -52 -127q-53 -53 -127 -53h-400z" />
<glyph unicode="q" horiz-adv-x="1718" d="M80 717q0 -297 210 -507t507 -210q222 0 403 124l93 -124h345l-242 322q119 179 119 395q0 298 -210 508t-508 210q-297 0 -507 -210t-210 -508zM356 717q0 183 129 312q130 130 312 130q183 0 312 -130q130 -129 130 -312q0 -182 -130 -312q-129 -129 -312 -129 q-182 0 -312 129q-129 130 -129 312z" />
<glyph unicode="r" horiz-adv-x="1332" d="M80 0h276v524h158l393 -524h345l-401 534q156 33 257 157q103 126 103 289q0 188 -133 321q-134 134 -322 134h-676v-1435zM356 800v359h400q74 0 127 -53q52 -52 52 -126q0 -75 -52 -127q-53 -53 -127 -53h-400z" />
<glyph unicode="s" horiz-adv-x="1278" d="M80 1007q0 -177 125 -302q126 -126 303 -126h262q63 0 107 -44q45 -45 45 -107q0 -63 -45 -108q-44 -44 -107 -44h-607v-276h607q177 0 302 125q126 126 126 303t-126 302q-125 125 -302 125h-262q-63 0 -108 45q-44 44 -44 107t44 107q45 45 108 45h621v276h-621 q-177 0 -303 -126q-125 -125 -125 -302z" />
<glyph unicode="t" horiz-adv-x="1264" d="M80 1159h414v-1159h276v1159h414v276h-1104v-276z" />
<glyph unicode="u" horiz-adv-x="1402" d="M80 621q0 -257 182 -439t439 -182t439 182t182 439v814h-276v-814q0 -143 -101 -244t-244 -101t-244 101t-101 244v814h-276v-814z" />
<glyph unicode="v" d="M80 1434l668 -1498l668 1498h-302l-366 -821l-366 821h-302z" />
<glyph unicode="w" horiz-adv-x="2021" d="M80 1434l668 -1498l262 588l262 -588l669 1498h-303l-366 -821l-107 241l-153 348l-156 -348l-108 -241l-366 821h-302z" />
<glyph unicode="x" horiz-adv-x="1449" d="M80 0h332l312 469l313 -469h332l-479 717l479 718h-332l-313 -469l-312 469h-332l479 -718z" />
<glyph unicode="y" horiz-adv-x="1469" d="M80 1435l517 -893v-542h276v542l516 893h-319l-335 -580l-336 580h-319z" />
<glyph unicode="z" horiz-adv-x="1373" d="M80 0h1186v276h-691l718 1159h-1158v-276h662z" />
<glyph unicode="&#xad;" horiz-adv-x="1098" d="M80 580h938v276h-938v-276z" />
<glyph unicode="&#xb4;" horiz-adv-x="519" d="M80 998h221l138 441h-276z" />
<glyph unicode="&#xc0;" d="M80 0h302l74 166h584l74 -166h302l-668 1498zM579 441l169 379l169 -379h-338zM617 1768l179 -179l97 97l-179 180z" />
<glyph unicode="&#xc1;" d="M80 0h302l74 166h584l74 -166h302l-668 1498zM579 441l169 379l169 -379h-338zM611 1686l97 -97l180 179l-98 98z" />
<glyph unicode="&#xc2;" d="M80 0h302l74 166h584l74 -166h302l-668 1498zM577 1714l98 -97l75 75l76 -75l97 97l-173 173zM579 441l169 379l169 -379h-338z" />
<glyph unicode="&#xc3;" d="M80 0h302l74 166h584l74 -166h302l-668 1498zM497 1720l122 -64q19 35 47 41q23 4 57 -24q67 -56 139 -56q15 0 31 2q97 18 152 116l-120 68q-24 -42 -57 -48q-24 -4 -56 23q-85 71 -172 54q-94 -18 -143 -112zM579 441l169 379l169 -379h-338z" />
<glyph unicode="&#xc4;" d="M80 0h302l74 166h584l74 -166h302l-668 1498zM504 1727q0 -41 29 -70t70 -29t70 29t29 70q0 42 -29 71t-70 29t-70 -29t-29 -71zM579 441l169 379l169 -379h-338zM802 1727q0 -41 29 -70t70 -29t70 29q30 29 30 70q0 42 -30 71q-29 29 -70 29t-70 -29t-29 -71z" />
<glyph unicode="&#xc5;" d="M80 0h302l74 166h584l74 -166h302l-612 1373q76 19 126 81q50 63 50 144q0 96 -68 164q-68 67 -164 67t-164 -67q-68 -68 -68 -164q0 -81 51 -144q49 -62 125 -81zM579 441l169 379l169 -379h-338zM654 1598q0 39 28 66q27 28 66 28t66 -28q28 -27 28 -66t-28 -67 q-27 -27 -66 -27t-66 27q-28 28 -28 67z" />
<glyph unicode="&#xc6;" horiz-adv-x="2202" d="M80 0h302l74 166h584l74 -166h1008v276h-828v303h580v276h-580v304h828v276h-1402zM579 441l169 379l169 -379h-338z" />
<glyph unicode="&#xc7;" horiz-adv-x="1385" d="M80 719q0 -298 210 -508q156 -155 369 -197v-206h221v198q248 28 425 205l-195 195q-130 -129 -313 -129q-182 0 -312 129q-129 130 -129 313t129 312t312 129q184 0 313 -129l195 195q-210 210 -508 210q-297 0 -507 -210t-210 -507z" />
<glyph unicode="&#xc8;" horiz-adv-x="1264" d="M80 0h1104v276h-828v303h579v276h-579v304h828v276h-1104v-1435zM493 1768l180 -179l97 97l-179 180z" />
<glyph unicode="&#xc9;" horiz-adv-x="1264" d="M80 0h1104v276h-828v303h579v276h-579v304h828v276h-1104v-1435zM493 1686l98 -97l179 179l-97 98z" />
<glyph unicode="&#xca;" horiz-adv-x="1264" d="M80 0h1104v276h-828v303h579v276h-579v304h828v276h-1104v-1435zM459 1714l97 -97l76 75l75 -75l98 97l-173 173z" />
<glyph unicode="&#xcb;" horiz-adv-x="1264" d="M80 0h1104v276h-828v303h579v276h-579v304h828v276h-1104v-1435zM384 1727q0 -41 29 -70t70 -29t70 29t29 70q0 42 -29 71t-70 29t-70 -29t-29 -71zM682 1727q0 -41 29 -70t70 -29t70 29t29 70q0 42 -29 71t-70 29t-70 -29t-29 -71z" />
<glyph unicode="&#xcc;" horiz-adv-x="437" d="M80 0h276v1435h-276v-1435zM80 1768l179 -179l98 97l-179 180z" />
<glyph unicode="&#xcd;" horiz-adv-x="437" d="M80 0h276v1435h-276v-1435zM80 1686l98 -97l179 179l-98 98z" />
<glyph unicode="&#xce;" horiz-adv-x="506" d="M80 1714l98 -97l75 75l75 -75l98 97l-173 173zM115 0h276v1435h-276v-1435z" />
<glyph unicode="&#xcf;" horiz-adv-x="657" d="M80 1727q0 -41 29 -70t70 -29t71 29q29 29 29 70q0 42 -29 71q-30 29 -71 29t-70 -29t-29 -71zM190 0h276v1435h-276v-1435zM378 1727q0 -41 29 -70t70 -29t71 29q29 29 29 70q0 42 -29 71q-30 29 -71 29t-70 -29t-29 -71z" />
<glyph unicode="&#xd0;" horiz-adv-x="1429" d="M80 607h110v-607h442q297 0 507 210t210 507q0 298 -210 508t-507 210h-442v-607h-110v-221zM466 276v331h193v221h-193v331h166q182 0 312 -130q129 -129 129 -312q0 -182 -129 -312q-130 -129 -312 -129h-166z" />
<glyph unicode="&#xd1;" horiz-adv-x="1374" d="M80 1h276v853l938 -938v1520h-276v-854l-938 938v-1519zM412 1719l122 -64q19 35 48 41q23 4 57 -24q66 -57 138 -57q16 0 31 3q98 18 153 116l-120 68q-24 -42 -57 -48q-24 -4 -57 23q-84 71 -172 54q-93 -18 -143 -112z" />
<glyph unicode="&#xd2;" horiz-adv-x="1595" d="M80 717q0 -297 210 -507t507 -210q298 0 508 210t210 507q0 298 -210 508t-508 210q-297 0 -507 -210t-210 -508zM356 717q0 183 129 312q130 130 312 130q183 0 312 -130q130 -129 130 -312q0 -182 -130 -312q-129 -129 -312 -129q-182 0 -312 129q-129 130 -129 312z M659 1768l179 -179l98 97l-179 180z" />
<glyph unicode="&#xd3;" horiz-adv-x="1595" d="M80 717q0 -297 210 -507t507 -210q298 0 508 210t210 507q0 298 -210 508t-508 210q-297 0 -507 -210t-210 -508zM356 717q0 183 129 312q130 130 312 130q183 0 312 -130q130 -129 130 -312q0 -182 -130 -312q-129 -129 -312 -129q-182 0 -312 129q-129 130 -129 312z M659 1686l98 -97l179 179l-98 98z" />
<glyph unicode="&#xd4;" horiz-adv-x="1595" d="M80 717q0 -297 210 -507t507 -210q298 0 508 210t210 507q0 298 -210 508t-508 210q-297 0 -507 -210t-210 -508zM356 717q0 183 129 312q130 130 312 130q183 0 312 -130q130 -129 130 -312q0 -182 -130 -312q-129 -129 -312 -129q-182 0 -312 129q-129 130 -129 312z M624 1714l98 -97l75 75l76 -75l97 97l-173 173z" />
<glyph unicode="&#xd5;" horiz-adv-x="1595" d="M80 717q0 -297 210 -507t507 -210q298 0 508 210t210 507q0 298 -210 508t-508 210q-297 0 -507 -210t-210 -508zM356 717q0 183 129 312q130 130 312 130q183 0 312 -130q130 -129 130 -312q0 -182 -130 -312q-129 -129 -312 -129q-182 0 -312 129q-129 130 -129 312z M523 1720l122 -64l-1 -1q21 37 49 42q22 4 56 -24q67 -56 139 -56q15 0 31 2q97 18 152 116l-120 68q-23 -42 -57 -48q-24 -4 -56 23q-85 71 -172 54q-94 -18 -143 -112z" />
<glyph unicode="&#xd6;" horiz-adv-x="1595" d="M80 717q0 -297 210 -507t507 -210q298 0 508 210t210 507q0 298 -210 508t-508 210q-297 0 -507 -210t-210 -508zM356 717q0 183 129 312q130 130 312 130q183 0 312 -130q130 -129 130 -312q0 -182 -130 -312q-129 -129 -312 -129q-182 0 -312 129q-129 130 -129 312z M549 1727q0 -41 29 -70t70 -29q42 0 71 29t29 70q0 42 -29 71t-71 29q-41 0 -70 -29t-29 -71zM847 1727q0 -41 29 -70t70 -29q42 0 71 29t29 70q0 42 -29 71t-71 29q-41 0 -70 -29t-29 -71z" />
<glyph unicode="&#xd7;" horiz-adv-x="1019" d="M80 485l195 -195l234 234l234 -234l196 195l-235 234l235 234l-196 196l-234 -235l-234 235l-195 -196l234 -234z" />
<glyph unicode="&#xd8;" horiz-adv-x="1595" d="M80 717q0 -289 201 -497l-152 -220h335l43 61q138 -61 290 -61q298 0 508 210t210 507q0 295 -207 504l148 214h-335l-40 -58q-135 58 -284 58q-297 0 -507 -210t-210 -508zM356 717q0 183 129 312q130 130 312 130q62 0 121 -17l-475 -688q-87 117 -87 263zM668 295 l479 692q92 -119 92 -270q0 -182 -130 -312q-129 -129 -312 -129q-66 0 -129 19z" />
<glyph unicode="&#xd9;" horiz-adv-x="1402" d="M80 621q0 -257 182 -439t439 -182t439 182t182 439v814h-276v-814q0 -143 -101 -244q-102 -101 -244 -101q-143 0 -244 101t-101 244v814h-276v-814zM562 1768l180 -179l97 97l-179 180z" />
<glyph unicode="&#xda;" horiz-adv-x="1402" d="M80 621q0 -257 182 -439t439 -182t439 182t182 439v814h-276v-814q0 -143 -101 -244q-102 -101 -244 -101q-143 0 -244 101t-101 244v814h-276v-814zM562 1686l98 -97l179 179l-97 98z" />
<glyph unicode="&#xdb;" horiz-adv-x="1402" d="M80 621q0 -257 182 -439t439 -182t439 182t182 439v814h-276v-814q0 -143 -101 -244q-102 -101 -244 -101q-143 0 -244 101t-101 244v814h-276v-814zM528 1714l97 -98l76 76l75 -76l98 98l-173 173z" />
<glyph unicode="&#xdc;" horiz-adv-x="1402" d="M80 621q0 -257 182 -439t439 -182t439 182t182 439v814h-276v-814q0 -143 -101 -244q-102 -101 -244 -101q-143 0 -244 101t-101 244v814h-276v-814zM453 1727q0 -41 29 -70t70 -29t70 29t29 70q0 42 -29 71t-70 29t-70 -29t-29 -71zM751 1727q0 -41 29 -70t70 -29t70 29 t29 70q0 42 -29 71t-70 29t-70 -29t-29 -71z" />
<glyph unicode="&#xdd;" horiz-adv-x="1469" d="M80 1435l517 -893v-542h276v542l516 893h-319l-335 -580l-336 580h-319zM624 1686l98 -97l179 179l-97 98z" />
<glyph unicode="&#xde;" horiz-adv-x="1236" d="M80 0h276v221h303q206 0 352 145q145 146 145 351q0 206 -145 351q-146 146 -352 146h-303v221h-276v-1435zM356 497v441h303q92 0 156 -65q65 -64 65 -156q0 -91 -65 -156q-64 -64 -156 -64h-303z" />
<glyph unicode="&#xdf;" horiz-adv-x="1333" d="M80 0h276v1007q0 63 44 107q45 45 108 45h207q62 0 107 -45q44 -44 44 -107t-44 -107q-45 -45 -107 -45h-180v-276h290q63 0 107 -44q45 -45 45 -107q0 -63 -45 -108q-44 -44 -107 -44h-345v-276h345q177 0 302 125q126 126 126 303q0 219 -179 347q68 106 68 232 q0 177 -125 302q-125 126 -302 126h-207q-177 0 -303 -126q-125 -125 -125 -302v-1007z" />
<glyph unicode="&#xe0;" d="M80 0h302l74 166h584l74 -166h302l-668 1498zM579 441l169 379l169 -379h-338zM617 1768l179 -179l97 97l-179 180z" />
<glyph unicode="&#xe1;" d="M80 0h302l74 166h584l74 -166h302l-668 1498zM579 441l169 379l169 -379h-338zM611 1686l97 -97l180 179l-98 98z" />
<glyph unicode="&#xe2;" d="M80 0h302l74 166h584l74 -166h302l-668 1498zM577 1714l98 -97l75 75l76 -75l97 97l-173 173zM579 441l169 379l169 -379h-338z" />
<glyph unicode="&#xe3;" d="M80 0h302l74 166h584l74 -166h302l-668 1498zM497 1720l122 -64q19 35 47 41q23 4 57 -24q67 -56 139 -56q15 0 31 2q97 18 152 116l-120 68q-24 -42 -57 -48q-24 -4 -56 23q-85 71 -172 54q-94 -18 -143 -112zM579 441l169 379l169 -379h-338z" />
<glyph unicode="&#xe4;" d="M80 0h302l74 166h584l74 -166h302l-668 1498zM504 1727q0 -41 29 -70t70 -29t70 29t29 70q0 42 -29 71t-70 29t-70 -29t-29 -71zM579 441l169 379l169 -379h-338zM802 1727q0 -41 29 -70t70 -29t70 29q30 29 30 70q0 42 -30 71q-29 29 -70 29t-70 -29t-29 -71z" />
<glyph unicode="&#xe5;" d="M80 0h302l74 166h584l74 -166h302l-612 1373q76 19 126 81q50 63 50 144q0 96 -68 164q-68 67 -164 67t-164 -67q-68 -68 -68 -164q0 -81 51 -144q49 -62 125 -81zM579 441l169 379l169 -379h-338zM654 1598q0 39 28 66q27 28 66 28t66 -28q28 -27 28 -66t-28 -67 q-27 -27 -66 -27t-66 27q-28 28 -28 67z" />
<glyph unicode="&#xe6;" horiz-adv-x="2202" d="M80 0h302l74 166h584l74 -166h1008v276h-828v303h580v276h-580v304h828v276h-1402zM579 441l169 379l169 -379h-338z" />
<glyph unicode="&#xe7;" horiz-adv-x="1385" d="M80 719q0 -298 210 -508q156 -155 369 -197v-206h221v198q248 28 425 205l-195 195q-130 -129 -313 -129q-182 0 -312 129q-129 130 -129 313t129 312t312 129q184 0 313 -129l195 195q-210 210 -508 210q-297 0 -507 -210t-210 -507z" />
<glyph unicode="&#xe8;" horiz-adv-x="1264" d="M80 0h1104v276h-828v303h579v276h-579v304h828v276h-1104v-1435zM493 1768l180 -179l97 97l-179 180z" />
<glyph unicode="&#xe9;" horiz-adv-x="1264" d="M80 0h1104v276h-828v303h579v276h-579v304h828v276h-1104v-1435zM493 1686l98 -97l179 179l-97 98z" />
<glyph unicode="&#xea;" horiz-adv-x="1264" d="M80 0h1104v276h-828v303h579v276h-579v304h828v276h-1104v-1435zM459 1714l97 -97l76 75l75 -75l98 97l-173 173z" />
<glyph unicode="&#xeb;" horiz-adv-x="1264" d="M80 0h1104v276h-828v303h579v276h-579v304h828v276h-1104v-1435zM384 1727q0 -41 29 -70t70 -29t70 29t29 70q0 42 -29 71t-70 29t-70 -29t-29 -71zM682 1727q0 -41 29 -70t70 -29t70 29t29 70q0 42 -29 71t-70 29t-70 -29t-29 -71z" />
<glyph unicode="&#xec;" horiz-adv-x="437" d="M80 0h276v1435h-276v-1435zM80 1768l179 -179l98 97l-179 180z" />
<glyph unicode="&#xed;" horiz-adv-x="437" d="M80 0h276v1435h-276v-1435zM80 1686l98 -97l179 179l-98 98z" />
<glyph unicode="&#xee;" horiz-adv-x="506" d="M80 1714l98 -97l75 75l75 -75l98 97l-173 173zM115 0h276v1435h-276v-1435z" />
<glyph unicode="&#xef;" horiz-adv-x="657" d="M80 1727q0 -41 29 -70t70 -29t71 29q29 29 29 70q0 42 -29 71q-30 29 -71 29t-70 -29t-29 -71zM190 0h276v1435h-276v-1435zM378 1727q0 -41 29 -70t70 -29t71 29q29 29 29 70q0 42 -29 71q-30 29 -71 29t-70 -29t-29 -71z" />
<glyph unicode="&#xf0;" horiz-adv-x="1429" d="M80 607h110v-607h442q297 0 507 210t210 507q0 298 -210 508t-507 210h-442v-607h-110v-221zM466 276v331h193v221h-193v331h166q182 0 312 -130q129 -129 129 -312q0 -182 -129 -312q-130 -129 -312 -129h-166z" />
<glyph unicode="&#xf1;" horiz-adv-x="1374" d="M80 1h276v853l938 -938v1520h-276v-854l-938 938v-1519zM412 1719l122 -64q19 35 48 41q23 4 57 -24q66 -57 138 -57q16 0 31 3q98 18 153 116l-120 68q-24 -42 -57 -48q-24 -4 -57 23q-84 71 -172 54q-93 -18 -143 -112z" />
<glyph unicode="&#xf2;" horiz-adv-x="1595" d="M80 717q0 -297 210 -507t507 -210q298 0 508 210t210 507q0 298 -210 508t-508 210q-297 0 -507 -210t-210 -508zM356 717q0 183 129 312q130 130 312 130q183 0 312 -130q130 -129 130 -312q0 -182 -130 -312q-129 -129 -312 -129q-182 0 -312 129q-129 130 -129 312z M659 1768l179 -179l98 97l-179 180z" />
<glyph unicode="&#xf3;" horiz-adv-x="1595" d="M80 717q0 -297 210 -507t507 -210q298 0 508 210t210 507q0 298 -210 508t-508 210q-297 0 -507 -210t-210 -508zM356 717q0 183 129 312q130 130 312 130q183 0 312 -130q130 -129 130 -312q0 -182 -130 -312q-129 -129 -312 -129q-182 0 -312 129q-129 130 -129 312z M659 1686l98 -97l179 179l-98 98z" />
<glyph unicode="&#xf4;" horiz-adv-x="1595" d="M80 717q0 -297 210 -507t507 -210q298 0 508 210t210 507q0 298 -210 508t-508 210q-297 0 -507 -210t-210 -508zM356 717q0 183 129 312q130 130 312 130q183 0 312 -130q130 -129 130 -312q0 -182 -130 -312q-129 -129 -312 -129q-182 0 -312 129q-129 130 -129 312z M624 1714l98 -97l75 75l76 -75l97 97l-173 173z" />
<glyph unicode="&#xf5;" horiz-adv-x="1595" d="M80 717q0 -297 210 -507t507 -210q298 0 508 210t210 507q0 298 -210 508t-508 210q-297 0 -507 -210t-210 -508zM356 717q0 183 129 312q130 130 312 130q183 0 312 -130q130 -129 130 -312q0 -182 -130 -312q-129 -129 -312 -129q-182 0 -312 129q-129 130 -129 312z M523 1720l122 -64l-1 -1q21 37 49 42q22 4 56 -24q67 -56 139 -56q15 0 31 2q97 18 152 116l-120 68q-23 -42 -57 -48q-24 -4 -56 23q-85 71 -172 54q-94 -18 -143 -112z" />
<glyph unicode="&#xf6;" horiz-adv-x="1595" d="M80 717q0 -297 210 -507t507 -210q298 0 508 210t210 507q0 298 -210 508t-508 210q-297 0 -507 -210t-210 -508zM356 717q0 183 129 312q130 130 312 130q183 0 312 -130q130 -129 130 -312q0 -182 -130 -312q-129 -129 -312 -129q-182 0 -312 129q-129 130 -129 312z M549 1727q0 -41 29 -70t70 -29q42 0 71 29t29 70q0 42 -29 71t-71 29q-41 0 -70 -29t-29 -71zM847 1727q0 -41 29 -70t70 -29q42 0 71 29t29 70q0 42 -29 71t-71 29q-41 0 -70 -29t-29 -71z" />
<glyph unicode="&#xf7;" horiz-adv-x="1098" d="M80 579h938v276h-938v-276zM411 358q0 -57 41 -98q40 -40 97 -40t98 40q40 41 40 98t-40 98q-41 40 -98 40t-97 -40q-41 -41 -41 -98zM411 1075q0 -57 41 -97q40 -41 97 -41t98 41q40 40 40 97q0 58 -40 98q-41 40 -98 40t-97 -40q-41 -40 -41 -98z" />
<glyph unicode="&#xf8;" horiz-adv-x="1595" d="M80 717q0 -289 201 -497l-152 -220h335l43 61q138 -61 290 -61q298 0 508 210t210 507q0 295 -207 504l148 214h-335l-40 -58q-135 58 -284 58q-297 0 -507 -210t-210 -508zM356 717q0 183 129 312q130 130 312 130q62 0 121 -17l-475 -688q-87 117 -87 263zM668 295 l479 692q92 -119 92 -270q0 -182 -130 -312q-129 -129 -312 -129q-66 0 -129 19z" />
<glyph unicode="&#xf9;" horiz-adv-x="1402" d="M80 621q0 -257 182 -439t439 -182t439 182t182 439v814h-276v-814q0 -143 -101 -244q-102 -101 -244 -101q-143 0 -244 101t-101 244v814h-276v-814zM562 1768l180 -179l97 97l-179 180z" />
<glyph unicode="&#xfa;" horiz-adv-x="1402" d="M80 621q0 -257 182 -439t439 -182t439 182t182 439v814h-276v-814q0 -143 -101 -244q-102 -101 -244 -101q-143 0 -244 101t-101 244v814h-276v-814zM562 1686l98 -97l179 179l-97 98z" />
<glyph unicode="&#xfb;" horiz-adv-x="1402" d="M80 621q0 -257 182 -439t439 -182t439 182t182 439v814h-276v-814q0 -143 -101 -244q-102 -101 -244 -101q-143 0 -244 101t-101 244v814h-276v-814zM528 1714l97 -98l76 76l75 -76l98 98l-173 173z" />
<glyph unicode="&#xfc;" horiz-adv-x="1402" d="M80 621q0 -257 182 -439t439 -182t439 182t182 439v814h-276v-814q0 -143 -101 -244q-102 -101 -244 -101q-143 0 -244 101t-101 244v814h-276v-814zM453 1727q0 -41 29 -70t70 -29t70 29t29 70q0 42 -29 71t-70 29t-70 -29t-29 -71zM751 1727q0 -41 29 -70t70 -29t70 29 t29 70q0 42 -29 71t-70 29t-70 -29t-29 -71z" />
<glyph unicode="&#xfd;" horiz-adv-x="1469" d="M80 1435l517 -893v-542h276v542l516 893h-319l-335 -580l-336 580h-319zM624 1686l98 -97l179 179l-97 98z" />
<glyph unicode="&#xfe;" horiz-adv-x="1236" d="M80 0h276v221h303q206 0 352 145q145 146 145 351q0 206 -145 351q-146 146 -352 146h-303v221h-276v-1435zM356 497v441h303q92 0 156 -65q65 -64 65 -156q0 -91 -65 -156q-64 -64 -156 -64h-303z" />
<glyph unicode="&#xff;" horiz-adv-x="1469" d="M80 1435l517 -893v-542h276v542l516 893h-319l-335 -580l-336 580h-319zM486 1727q0 -41 29 -70q30 -29 71 -29t70 29t29 70q0 42 -29 71t-70 29t-71 -29q-29 -29 -29 -71zM784 1727q0 -41 29 -70q30 -29 71 -29t70 29t29 70q0 42 -29 71t-70 29t-71 -29q-29 -29 -29 -71 z" />
<glyph unicode="&#x2000;" horiz-adv-x="965" />
<glyph unicode="&#x2001;" horiz-adv-x="1930" />
<glyph unicode="&#x2002;" horiz-adv-x="965" />
<glyph unicode="&#x2003;" horiz-adv-x="1930" />
<glyph unicode="&#x2004;" horiz-adv-x="643" />
<glyph unicode="&#x2005;" horiz-adv-x="482" />
<glyph unicode="&#x2006;" horiz-adv-x="321" />
<glyph unicode="&#x2007;" horiz-adv-x="321" />
<glyph unicode="&#x2008;" horiz-adv-x="241" />
<glyph unicode="&#x2009;" horiz-adv-x="386" />
<glyph unicode="&#x200a;" horiz-adv-x="107" />
<glyph unicode="&#x2010;" horiz-adv-x="1098" d="M80 580h938v276h-938v-276z" />
<glyph unicode="&#x2011;" horiz-adv-x="1098" d="M80 580h938v276h-938v-276z" />
<glyph unicode="&#x2012;" horiz-adv-x="1098" d="M80 580h938v276h-938v-276z" />
<glyph unicode="&#x2013;" horiz-adv-x="1184" d="M80 580h1024v276h-1024v-276z" />
<glyph unicode="&#x2014;" horiz-adv-x="2208" d="M80 580h2048v276h-2048v-276z" />
<glyph unicode="&#x2018;" horiz-adv-x="381" d="M80 994h221v441h-221v-441z" />
<glyph unicode="&#x2019;" horiz-adv-x="381" d="M80 994h221v441h-221v-441z" />
<glyph unicode="&#x201c;" horiz-adv-x="657" d="M80 994h221v441h-221v-441zM356 994h221v441h-221v-441z" />
<glyph unicode="&#x201d;" horiz-adv-x="657" d="M80 994h221v441h-221v-441zM356 994h221v441h-221v-441z" />
<glyph unicode="&#x202f;" horiz-adv-x="386" />
<glyph unicode="&#x2039;" horiz-adv-x="760" d="M80 727l405 -405l195 195l-210 210l210 210l-195 195z" />
<glyph unicode="&#x203a;" horiz-adv-x="760" d="M80 515l195 -195l405 405l-405 405l-195 -195l210 -210z" />
<glyph unicode="&#x205f;" horiz-adv-x="482" />
<glyph unicode="&#x20ac;" horiz-adv-x="1481" d="M80 455h146q54 -138 161 -245q210 -210 507 -210t507 210l-195 195q-129 -129 -312 -129t-312 129q-24 24 -43 50h272v221h-357q-1 21 -1 41q0 21 1 42h357v221h-272q19 26 43 50q129 129 312 129t312 -129l195 195q-210 210 -507 210t-507 -210q-107 -107 -161 -245 h-146v-221h98q-1 -22 -1 -42t1 -41h-98v-221z" />
<glyph unicode="&#x25fc;" horiz-adv-x="1435" d="M0 0v1435h1435v-1435h-1435z" />
</font>
</defs>
</svg>
