<?xml version="1.0" encoding="UTF-8"?>
<svg width="655px" height="36px" viewBox="0 0 655 36" version="1.1" xmlns="http://www.w3.org/2000/svg" xmlns:xlink="http://www.w3.org/1999/xlink">
    <!-- Generator: Sketch 48.2 (47327) - http://www.bohemiancoding.com/sketch -->
    <title>name</title>
    <desc>Created with Sketch.</desc>
    <defs></defs>
    <g id="Home" stroke="none" stroke-width="1" fill="none" fill-rule="evenodd" transform="translate(-192.000000, -333.000000)">
        <g id="name" transform="translate(192.000000, 333.000000)" fill="#FFFFFF">
            <polygon id="Fill-1" fill-rule="nonzero" points="19.5015142 0.997070312 19.5015142 0.976867676 39 35 32.6597896 35 19.5015142 12.0550071 6.34053306 35 0 35 19.5015142 0.997070312"></polygon>
            <path d="M81.386,20.614 L86.972,20.614 C86.972,24.478 85.628,27.796 82.856,30.526 C80.126,33.256 76.766,34.6 72.944,34.6 C69.122,34.6 65.804,33.256 63.074,30.526 C60.344,27.796 59,24.436 59,20.614 L59,1 L64.586,1 L64.586,20.614 C64.586,22.924 65.384,24.898 66.98,26.494 C68.618,28.174 70.634,28.972 72.944,28.972 C75.254,28.972 77.228,28.132 78.866,26.494 C80.504,24.856 81.386,22.882 81.386,20.614 Z" id="Path"></path>
            <path d="M126.144,20.614 L117.786,20.614 C115.056,20.614 112.746,19.648 110.856,17.758 C108.966,15.826 108,13.516 108,10.786 C108,8.098 108.966,5.83 110.856,3.898 C112.746,1.966 115.056,1 117.786,1 L117.786,6.628 C117.198,6.628 116.652,6.712 116.148,6.922 C115.602,7.132 115.182,7.426 114.762,7.846 C114.384,8.224 114.09,8.686 113.88,9.19 C113.67,9.694 113.586,10.24 113.586,10.786 C113.586,11.962 113.964,12.928 114.762,13.768 C115.602,14.608 116.568,15.028 117.786,15.028 L126.144,15.028 C128.874,15.028 131.184,15.994 133.074,17.884 C135.006,19.816 135.972,22.126 135.972,24.814 C135.972,27.502 135.006,29.812 133.074,31.744 C131.184,33.634 128.874,34.6 126.144,34.6 L126.144,28.972 C126.732,28.972 127.278,28.888 127.782,28.678 C128.328,28.468 128.79,28.174 129.168,27.796 C129.546,27.418 129.84,26.998 130.05,26.452 C130.26,25.948 130.386,25.402 130.386,24.814 C130.386,23.68 129.924,22.714 129.126,21.874 C128.286,21.034 127.32,20.614 126.144,20.614 Z" id="Path"></path>
            <polygon id="Path" points="172.8 1 172.8 34.6 167.172 34.6 167.172 6.628 156 6.628 156 1"></polygon>
            <polygon id="Path" points="206 6.544 206 28.972 200.414 34.6 200.414 1"></polygon>
            <polygon id="Path" points="253.267997 1.4 258.853997 1.4 258.853997 35 230.923997 9.884 230.923997 1.4 253.267997 21.518"></polygon>
            <path d="M392.94,18.514 C391.638,20.404 390,21.748 388.026,22.546 L394.914,34.6 L388.488,34.6 L378.744,17.758 L383.742,17.8 C385.254,17.8 386.556,17.254 387.648,16.162 C388.782,15.07 389.328,13.726 389.328,12.172 C389.328,10.66 388.782,9.358 387.648,8.266 C386.556,7.174 385.254,6.628 383.742,6.628 L372.528,6.628 L371.898,5.998 L369,1 L383.742,1 C386.808,1 389.454,2.092 391.638,4.276 C393.822,6.502 394.914,9.106 394.914,12.172 C394.914,14.524 394.284,16.624 392.94,18.514 Z" id="Path"></path>
            <path d="M443.386,20.614 L448.972,20.614 C448.972,24.478 447.628,27.796 444.856,30.526 C442.126,33.256 438.766,34.6 434.944,34.6 C431.122,34.6 427.804,33.256 425.074,30.526 C422.344,27.796 421,24.436 421,20.614 L421,1 L426.586,1 L426.586,20.614 C426.586,22.924 427.384,24.898 428.98,26.494 C430.618,28.174 432.634,28.972 434.944,28.972 C437.254,28.972 439.228,28.132 440.866,26.494 C442.504,24.856 443.386,22.882 443.386,20.614 Z" id="Path"></path>
            <polygon id="Path" points="543.386 1 548.972 1 548.972 34.6 543.386 34.6 543.386 20.614 526.586 20.614 526.586 34.6 521 34.6 521 20.614 526.586 14.986 543.386 14.986"></polygon>
            <polygon id="Path" points="649.263991 1.4 654.849991 1.4 654.849991 35 626.919991 9.884 626.919991 1.4 649.263991 21.518"></polygon>
            <path d="M501.93107,5.83564039 L498.041983,9.72472768 C493.648585,5.3313294 486.525479,5.3313294 482.132081,9.72472768 C477.738682,14.118126 477.738682,21.241232 482.132081,25.6346303 C484.25906,27.7616097 487.084879,28.9155602 490.033229,28.9295513 L490.00713,34.4294894 C485.623466,34.4086871 481.405527,32.6862508 478.242993,29.5237176 C471.701711,22.9824357 471.701711,12.3769223 478.242993,5.83564039 C484.784275,-0.705641499 495.389789,-0.705641499 501.93107,5.83564039 Z" id="Oval-2" fill-rule="nonzero"></path>
            <polygon id="Fill-1" fill-rule="nonzero" points="351.198158 0.89890801 351.215654 0.888806691 331.5 34.7865569 328.329895 29.2957736 341.621704 6.42787641 315.170267 6.50262887 312 1.01156616 351.198158 0.89890801"></polygon>
            <polygon id="Fill-1" fill-rule="nonzero" points="589.501514 1.02020264 589.501514 1 609 35.0231323 602.65979 35.0231323 589.501514 12.0781394 576.340533 35.0231323 570 35.0231323 589.501514 1.02020264"></polygon>
        </g>
    </g>
</svg>