<?xml version="1.0" encoding="UTF-8"?>
<svg width="343px" height="82px" viewBox="0 0 343 82" version="1.1" xmlns="http://www.w3.org/2000/svg" xmlns:xlink="http://www.w3.org/1999/xlink">
    <!-- Generator: Sketch 48.2 (47327) - http://www.bohemiancoding.com/sketch -->
    <title>name-small</title>
    <desc>Created with Sketch.</desc>
    <defs></defs>
    <g id="Pages" stroke="none" stroke-width="1" fill="none" fill-rule="evenodd">
        <g id="name-small" fill="#FFFFFF" fill-rule="nonzero">
            <g id="Group-29">
                <polygon id="Fill-1" points="18.0000395 13.1437941 7.63211777 30.9978238 0 30.9978238 18 0 35.9987363 30.999864 28.3670142 30.999864"></polygon>
                <path d="M77.0000003,1 L77.0000003,17.6973684 C77.0000003,21.5506517 73.7903196,24.7 69.8000002,24.7 C65.8096808,24.7 62.6000001,21.5506517 62.6000001,17.6973684 L62.6000001,1 L56,1 L56,17.6973684 C56,25.2240577 62.1923397,31.3 69.8000002,31.3 C77.4076607,31.3 83.6000004,25.2240577 83.6000004,17.6973684 L83.6000004,1 L77.0000003,1 Z" id="Rectangle-7"></path>
                <polygon id="Path-2" points="258.6 31.9770608 258.6 1 252 1 252 18.7451614 229 1.42571695 229 31 235.6 31 235.6 14.6576164"></polygon>
                <path d="M114.5,13.0117206 L114.5,13 C112.567003,13 111,11.4329966 111,9.5 C111,7.56700338 112.567003,6 114.5,6 C116.432997,6 118,7.56700338 118,9.5 L124,9.5 C124,4.25329488 119.746705,0 114.5,0 C109.253295,0 105,4.25329488 105,9.5 C105,14.5789879 108.985718,18.7270615 114,18.9870679 L114,19 C116.256771,19 118,20.6187129 118,22.5 C118,24.3812871 116.256771,26 114,26 L114,32 C119.475216,32 124,27.7984146 124,22.5 C124,17.3637667 119.747978,13.2582437 114.500005,13.0117208 L114.5,13.0117206 Z" id="Combined-Shape"></path>
                <polygon id="Line-3" points="199 1 199 31 205 31 205 1"></polygon>
                <polygon id="Combined-Shape" points="164.862475 7.35204139 164.862475 31.3525658 158.861813 31.3525658 158.861813 7.35204139 147 7.35204139 147 1.35256578 176.09 1.35256578 176.09 7.35204139"></polygon>
            </g>
            <g id="Group-28" transform="translate(0.000000, 50.000000)">
                <polygon id="Fill-1" points="24.3175184 7.62369158 3.79351007 7.57211707 0 1 35.6330979 1.08903745 17.8912547 32 14.0979413 25.4282236"></polygon>
                <path d="M189.6,15.8 C189.6,7.6261857 182.973814,1 174.8,1 C166.626186,1 160,7.6261857 160,15.8 C160,23.9738143 166.626186,30.6 174.8,30.6 L174.8,24 C170.271265,24 166.6,20.3287349 166.6,15.8 C166.6,11.2712651 170.271265,7.6 174.8,7.6 C179.328735,7.6 183,11.2712651 183,15.8 L189.6,15.8 Z" id="Oval-2"></path>
                <path d="M134,1 L134,17.6973684 C134,21.5506517 130.79032,24.7 126.8,24.7 C122.809681,24.7 119.6,21.5506517 119.6,17.6973684 L119.6,1 L113,1 L113,17.6973684 C113,25.2240577 119.19234,31.3 126.8,31.3 C134.407661,31.3 140.6,25.2240577 140.6,17.6973684 L140.6,1 L134,1 Z" id="Rectangle-7"></path>
                <path d="M82.5541671,1.125 L53.5,1 L50,7.5 L82.5541671,7.725 C84.4013742,7.725 85.8942798,9.21265026 85.8942798,11.0421248 C85.8942798,12.8715993 84.4013742,14.3592496 82.5541671,14.3592496 L68.5492619,14.3592496 L68.6597126,31.125 L75.0346895,31.125 L75.0346895,20.9592496 L82.5541671,20.9592496 C83.7257816,20.9592496 84.8502425,20.7569796 85.8942799,20.3854829 L85.8942799,31.125 L92.4950567,31.125 L92.4950567,10.864208 C92.3983396,5.46679171 87.9823378,1.125 82.5541671,1.125 Z" id="Combined-Shape"></path>
                <polygon id="Combined-Shape" points="215.6 24.0948587 215.6 31.0227573 209 31.0227573 209 1 215.6 1 215.6 17.4948587 230.471581 17.4948587 230.471581 1 237.071581 1 237.071581 31 230.471581 31 230.471581 24.0948587"></polygon>
                <polygon id="Fill-1" points="275.000039 13.1437941 264.632118 30.9978238 257 30.9978238 275 0 292.998736 30.999864 285.367014 30.999864"></polygon>
                <polygon id="Path-2" points="342.6 31.9770608 342.6 1 336 1 336 18.7451614 313 1.42571695 313 31 319.6 31 319.6 14.6576164"></polygon>
            </g>
        </g>
    </g>
</svg>