<?xml version="1.0" standalone="no"?>
<!DOCTYPE svg PUBLIC "-//W3C//DTD SVG 1.1//EN" "http://www.w3.org/Graphics/SVG/1.1/DTD/svg11.dtd" >
<svg xmlns="http://www.w3.org/2000/svg" xmlns:xlink="http://www.w3.org/1999/xlink" version="1.1">
<metadata></metadata>
<defs>
<font id="zeldaregular" horiz-adv-x="835" >
<font-face units-per-em="2048" ascent="1536" descent="-512" />
<missing-glyph horiz-adv-x="397" />
<glyph horiz-adv-x="0" />
<glyph horiz-adv-x="682" />
<glyph unicode=" "  horiz-adv-x="397" />
<glyph unicode="&#x09;" horiz-adv-x="397" />
<glyph unicode="&#xa0;" horiz-adv-x="397" />
<glyph unicode="&#x22;" horiz-adv-x="665" d="M88 1276v307h184v-307h-184zM367 1276v307h184v-307h-184z" />
<glyph unicode="'" horiz-adv-x="382" d="M80 1276v307h184v-307h-184z" />
<glyph unicode="," horiz-adv-x="358" d="M-6 -90l47 92v184h184v-92v-92z" />
<glyph unicode="-" d="M90 657v185h578v-185h-578z" />
<glyph unicode="." horiz-adv-x="358" d="M55 0v184h185v-184h-185z" />
<glyph unicode=":" horiz-adv-x="319" d="M39 0v184h184v-184h-184zM39 612v185h184v-185h-184z" />
<glyph unicode=";" horiz-adv-x="331" d="M-2 -90l47 92v184h184v-92v-92zM45 616v185h184v-185h-184z" />
<glyph unicode="A" horiz-adv-x="1421" d="M12 0l598 1282l101 219l102 -219l-102 -217l-496 -1065h-203zM813 846l100 217l494 -1063h-203z" />
<glyph unicode="B" horiz-adv-x="1193" d="M115 0v2v840h182h324q49 0 93 18.5t75.5 51t51 74.5t19.5 91v4q0 49 -19.5 92.5t-51 76t-75.5 51t-93 18.5h-506v182h506q88 0 163.5 -32.5t133 -90t90 -134.5t32.5 -163v-4q0 -98 -43 -183t-114 -142q72 -59 114.5 -143.5t42.5 -184.5v-2q0 -88 -32.5 -165t-90 -134 t-133 -90t-163.5 -33h-506zM297 182h324q49 0 93 19.5t75.5 51.5t51 76t19.5 93v2q0 49 -19.5 92t-51 75t-75.5 50t-93 18h-324v-477z" />
<glyph unicode="C" horiz-adv-x="1294" d="M80 750q0 152 56.5 288t162.5 244q109 106 245 162.5t285 56.5h363v-184h-363q-117 0 -220 -45t-180 -122t-121 -180.5t-44 -219.5q0 -117 44 -220.5t121 -180.5t180.5 -121t219.5 -44h363v-184h-363q-150 0 -285.5 56.5t-244.5 162.5q-106 109 -162.5 245t-56.5 286z " />
<glyph unicode="D" horiz-adv-x="1323" d="M111 0v184v930h184v-930h174q119 0 222.5 44t180 121t121.5 180.5t45 220.5t-45 220t-121.5 180t-180 122t-222.5 45h-358v184h358q152 0 289 -56.5t243 -162.5q109 -109 165.5 -245t56.5 -287q0 -152 -56.5 -287t-165.5 -244q-106 -106 -243 -162.5t-289 -56.5h-358z " />
<glyph unicode="E" horiz-adv-x="1191" d="M111 0v1133h184v-291h412v-185h-412v-473h813v-184h-997zM111 1317v184h997v-184h-997z" />
<glyph unicode="F" horiz-adv-x="1138" d="M88 0v1135h182v-293h412v-185h-412v-657h-182zM88 1317v184h995v-184h-995z" />
<glyph unicode="G" horiz-adv-x="1396" d="M70 750q0 152 56 288t163 244q109 106 244 162.5t286 56.5h457v-184h-457q-117 0 -220 -45t-180 -122t-121 -180.5t-44 -219.5q0 -117 44 -220.5t121 -180.5t180 -121t220 -44h271v287h182v-471h-453q-152 0 -287 56.5t-243 162.5q-106 109 -162.5 244t-56.5 287z M672 657v185h604v-185h-604z" />
<glyph unicode="H" horiz-adv-x="1245" d="M102 0v836h813v665h185v-1501h-185v651h-628v-651h-185zM102 1022v479h185v-479h-185z" />
<glyph unicode="I" horiz-adv-x="450" d="M123 0v1501h184v-1501h-184z" />
<glyph unicode="J" horiz-adv-x="991" d="M20 420v4h185v-4q0 -49 18.5 -92t50 -75t74.5 -50.5t92 -18.5h4q49 0 92.5 18.5t75 50.5t50 75t18.5 92v1081h184v-1081q0 -86 -32.5 -163t-90 -134t-134.5 -90t-163 -33h-4q-86 0 -162.5 33t-134 90t-90.5 134t-33 163z" />
<glyph unicode="K" horiz-adv-x="1216" d="M98 -2v1501h185v-919l643 919h223zM623 432l112 158l414 -590v-2h-223z" />
<glyph unicode="L" horiz-adv-x="1126" d="M86 0v184h997v-184h-997zM86 369v1132h184v-1132h-184z" />
<glyph unicode="M" horiz-adv-x="1478" d="M94 0v1501l623 -624l620 624v-260l-620 -627l-438 439v-1053h-185zM1153 0v793l184 184v-977h-184z" />
<glyph unicode="N" horiz-adv-x="1347" d="M100 0v950l185 -205v-745h-185zM100 1225v2v274l922 -1024v1024h184v-1501l-184 203z" />
<glyph unicode="O" horiz-adv-x="1665" d="M49 750q0 152 56.5 289t162.5 243t241.5 162.5t289.5 56.5q152 0 287 -56t241 -163q109 -106 166 -243.5t57 -288.5q0 -150 -57 -287t-166 -244q-106 -106 -241 -162.5t-287 -56.5q-154 0 -289 56.5t-242 162.5q-106 106 -162.5 243.5t-56.5 287.5zM233 750 q0 -117 44.5 -220.5t121 -180.5t180 -121t220.5 -44t220 44t180 121t122 180.5t45 220.5q0 119 -45 222t-122 180t-180 121t-220 44t-220.5 -44t-180 -121t-121 -180.5t-44.5 -221.5z" />
<glyph unicode="P" horiz-adv-x="1064" d="M84 2v657v183h506q49 0 93 18.5t76 51t51 74.5t19 91v4q0 49 -19 92.5t-51 76t-76 51t-93 18.5h-506v182h506q88 0 163.5 -32.5t133 -90t90.5 -134.5t33 -163v-4q0 -86 -33 -161.5t-90.5 -133t-133 -90.5t-163.5 -33h-324v-657h-182z" />
<glyph unicode="Q" horiz-adv-x="1650" d="M51 750q0 152 56.5 289t162.5 243t241.5 162.5t289.5 56.5q152 0 287 -56.5t241 -162.5q109 -106 166 -243.5t57 -288.5q0 -119 -36.5 -230.5t-106.5 -206.5l-111 164q70 127 70 273q0 119 -45 222t-122 180t-180 121t-220 44t-220.5 -44t-180 -121t-120.5 -180.5 t-44 -221.5q0 -117 44 -220.5t120.5 -180.5t180 -121t220.5 -44h21.5t21.5 2l114 -170q-82 -16 -157 -16q-154 0 -289 56.5t-242 162.5q-106 106 -162.5 243.5t-56.5 287.5zM915 403l152 97l373 -553h-217z" />
<glyph unicode="R" horiz-adv-x="1118" d="M100 0v657v185h508q49 0 92 18.5t75 51t50.5 74.5t18.5 91v4q0 49 -18.5 92.5t-50.5 75t-75 50t-92 18.5h-508v184h508q86 0 163 -32.5t133.5 -90t90 -134.5t33.5 -163v-4q0 -86 -33.5 -162.5t-90 -133t-133.5 -90.5t-163 -34h-323v-657h-185zM539 471l209 6l270 -477 h-213z" />
<glyph unicode="S" horiz-adv-x="1134" d="M70 0v184h510q49 0 92 18.5t74.5 50.5t50 75t18.5 92v4q0 49 -18.5 91t-50 75t-74.5 51t-92 18h-99q-86 2 -161.5 36t-131 90.5t-87 131t-31.5 160.5v4q0 86 32.5 163t90 134.5t134 90t162.5 32.5h508v-184h-508q-49 0 -92 -18.5t-74.5 -50t-50 -75t-18.5 -92.5v-4 q0 -49 18.5 -91t50 -74.5t74.5 -51t92 -18.5h91q76 0 141 -25.5t121 -66.5q72 -57 113.5 -142.5t41.5 -183.5v-4q0 -86 -32.5 -163t-89 -134t-133 -90t-162.5 -33h-510z" />
<glyph unicode="T" horiz-adv-x="1064" d="M16 1317v184h998v-184h-998zM428 0v1133h184v-1133h-184z" />
<glyph unicode="U" horiz-adv-x="1224" d="M86 502v999h184v-999q0 -66 24.5 -124.5t68 -101.5t101.5 -67.5t124 -24.5t123 24.5t100 67.5t68.5 101.5t25.5 124.5v999h185v-999q0 -104 -39 -195.5t-108 -160t-160 -107.5t-195 -39t-195.5 39t-160 107.5t-107.5 159.5t-39 196z" />
<glyph unicode="V" horiz-adv-x="1421" d="M12 1501h203l391 -846l-100 -219zM606 219l103 217l495 1065h203l-598 -1284l-100 -217z" />
<glyph unicode="W" horiz-adv-x="1560" d="M88 0v274l670 744l485 -541v1024h184v-1501h-2l-667 743zM88 547v954h184v-749z" />
<glyph unicode="X" horiz-adv-x="1179" d="M33 1501h211l223 -385l-107 -182zM35 0l866 1501h213l-434 -751v-2l430 -748h-211l-326 563l-325 -563h-213z" />
<glyph unicode="Y" horiz-adv-x="1134" d="M14 1501h213l224 -385l-107 -184zM463 0v748l436 753h197l-434 -753v-748h-199z" />
<glyph unicode="Z" horiz-adv-x="1253" d="M59 1317v184h658l-107 -184h-551zM61 0l867 1501h213l-760 -1317h762v-184h-1082z" />
<glyph unicode="_" horiz-adv-x="827" d="M41 0v184h668v-184h-668z" />
<glyph unicode="a" horiz-adv-x="1421" d="M12 0l699 1501l102 -219l-512 -1098h817l-305 662l100 217l408 -879l86 -184h-1395z" />
<glyph unicode="b" horiz-adv-x="1138" d="M92 0v182h506q49 0 93 19.5t76 51.5t51.5 76t19.5 93v2q0 49 -19.5 92t-51.5 75t-76 50t-93 18h-506v183h506q49 0 93 18.5t76 51t51.5 74.5t19.5 91v4q0 49 -19.5 92.5t-51.5 76t-76 51t-93 18.5h-506v182h506q88 0 164 -32.5t133 -90t90 -134.5t33 -163v-4 q0 -98 -43 -183t-115 -142q72 -59 115 -143.5t43 -184.5v-2q0 -88 -33 -165t-90 -134t-133 -90t-164 -33h-506z" />
<glyph unicode="c" horiz-adv-x="1257" d="M53 750q0 152 56.5 288t162.5 244q109 106 245 162.5t286 56.5h362v-184h-362q-117 0 -220.5 -45t-180 -122t-120.5 -180.5t-44 -219.5q0 -117 44 -220.5t120.5 -180.5t180 -121t220.5 -44h362v-184h-362q-150 0 -286 56.5t-245 162.5q-106 109 -162.5 245t-56.5 286z " />
<glyph unicode="d" horiz-adv-x="1273" d="M68 0v184h358q119 0 222.5 44t180 121t121.5 180.5t45 220.5t-45 220t-121.5 180t-180 122t-222.5 45h-358v184h358q152 0 289 -56t243 -163q109 -109 165.5 -245t56.5 -287q0 -152 -56.5 -287t-165.5 -244q-106 -106 -243 -162.5t-289 -56.5h-358z" />
<glyph unicode="e" horiz-adv-x="1150" d="M80 0v184h997v-184h-997zM80 657v185h596v-185h-596zM80 1317v184h997v-184h-997z" />
<glyph unicode="f" horiz-adv-x="1126" d="M98 0v657v185h594v-185h-411v-657h-183zM98 1317v184h996v-184h-996z" />
<glyph unicode="g" horiz-adv-x="1437" d="M74 750q0 104 26.5 200.5t77.5 184.5q25 41 52.5 76.5t62.5 70.5q109 106 244 162.5t286 56.5h457v-184h-457q-84 0 -159 -25q-113 -33 -201 -106.5t-141 -175.5q-63 -121 -64 -260q0 -117 44 -220.5t121 -180.5t180.5 -121t219.5 -44h451v-184h-451q-152 0 -287 56.5 t-243 162.5q-86 86 -139.5 190.5t-71.5 221.5q-4 29 -6 58.5t-2 60.5zM1094 369v473h182v-473h-182z" />
<glyph unicode="h" horiz-adv-x="1249" d="M104 0v836h185h629v665h184v-1501h-184v651h-629v-651h-185zM104 1022v479h185v-479h-185z" />
<glyph unicode="i" horiz-adv-x="413" d="M82 0v1133h184v-1133h-184zM82 1317v184h184v-184h-184z" />
<glyph unicode="j" horiz-adv-x="978" d="M25 420v4h184v-4q0 -49 18.5 -92t50 -75t74.5 -50.5t92 -18.5h5q49 0 92 18.5t74.5 50.5t50 75t18.5 92v713h184v-713q0 -86 -32.5 -163t-90 -134t-134 -90t-162.5 -33h-5q-86 0 -162.5 33t-134 90t-90 134t-32.5 163zM684 1317v184h184v-184h-184z" />
<glyph unicode="k" horiz-adv-x="1220" d="M98 -2v1501h185v-919l643 919h223zM623 432l112 158l414 -590v-2h-223z" />
<glyph unicode="l" horiz-adv-x="1114" d="M80 0v184h997v-184h-997zM80 369v1132h184v-1132h-184z" />
<glyph unicode="m" horiz-adv-x="1482" d="M96 0v1501l623 -624l620 624v-260l-620 -627l-438 439v-1053h-185zM1155 0v793l184 184v-977h-184z" />
<glyph unicode="n" horiz-adv-x="1363" d="M109 0v950l184 -205v-745h-184zM109 1225v2v274l921 -1024v1024h184v-1229v-272z" />
<glyph unicode="o" horiz-adv-x="1658" d="M59 750q0 152 56.5 289t163.5 243q106 106 241 162.5t289 56.5q152 0 287 -56t241 -163q109 -106 166.5 -243.5t57.5 -288.5q0 -150 -57.5 -287t-166.5 -244q-106 -106 -241 -162.5t-287 -56.5q-154 0 -289 56.5t-241 162.5t-163 243.5t-57 287.5zM244 750 q0 -117 44 -220.5t120.5 -180.5t180 -121t220.5 -44t220.5 44t180 121t121.5 180.5t45 220.5q0 119 -45 222t-121.5 180t-180 121t-220.5 44t-220.5 -44t-180 -121t-120.5 -180.5t-44 -221.5z" />
<glyph unicode="p" horiz-adv-x="1060" d="M94 0v657v183h506q49 0 93 18.5t76 51t51.5 74.5t19.5 91v4q0 49 -19.5 92t-51.5 76t-76 51.5t-93 18.5h-506v182h506q88 0 164 -32.5t133 -90t90 -134.5t33 -163v-4q0 -86 -33 -161.5t-90 -133t-133 -90.5t-164 -33h-324v-657h-182z" />
<glyph unicode="q" horiz-adv-x="1650" d="M45 750q0 152 56.5 289t162.5 243t241.5 162.5t289.5 56.5q152 0 287 -56.5t241 -162.5q109 -106 166 -243.5t57 -288.5q0 -150 -57 -287t-166 -244q-115 -115 -260 -170v203q68 35 122 87t94 116.5t61.5 139.5t21.5 155q0 119 -45 222t-122 180t-180.5 121t-219.5 44 q-117 0 -220.5 -44t-180.5 -121t-121 -180.5t-44 -221.5q0 -162 82 -295t217 -205v-203q-147 55 -264 172q-106 106 -162.5 243.5t-56.5 287.5zM707 -139v540h178v-540h-178z" />
<glyph unicode="r" horiz-adv-x="1101" d="M88 0v657v185h508q49 0 92 18.5t75 51t50 74.5t18 91v4q0 49 -18 92.5t-50 75t-75 50t-92 18.5h-508v184h508q86 0 163 -32.5t133 -90t90 -134.5t34 -163v-4q0 -86 -34 -162.5t-90 -133t-133 -90.5t-163 -34h-324v-657h-184zM526 471l209 6l271 -477h-213z" />
<glyph unicode="s" horiz-adv-x="1138" d="M92 0v184h510q49 0 92 18.5t75 50.5t50.5 75t18.5 92v4q0 49 -18.5 91t-50.5 75t-75 51t-92 18h-98q-86 2 -162 36t-131 90.5t-87 131t-32 160.5v4q0 86 33 163t90 134.5t134 90t163 32.5h508v-184h-508q-49 0 -92 -18.5t-75 -50t-50.5 -75t-18.5 -92.5v-4 q0 -49 18.5 -91t50.5 -74.5t75 -51t92 -18.5h90q76 0 141.5 -25.5t120.5 -66.5q72 -57 114 -142.5t42 -183.5v-4q0 -86 -33 -163t-89 -134t-133 -90t-163 -33h-510z" />
<glyph unicode="t" horiz-adv-x="1064" d="M23 1317v184h997v-184h-997zM434 0v1133h184v-1133h-184z" />
<glyph unicode="u" horiz-adv-x="1200" d="M74 502v999h184v-999q0 -66 24.5 -124.5t67.5 -101.5t101.5 -67.5t123.5 -24.5q66 0 123.5 24.5t100.5 67.5t68.5 101.5t25.5 124.5v999h184v-999q0 -104 -39 -195.5t-107.5 -160t-160 -107.5t-195.5 -39t-195 39t-159.5 107.5t-107.5 159.5t-39 196z" />
<glyph unicode="v" horiz-adv-x="1421" d="M10 1501h203h989h203l-86 -184l-512 -1098l-100 -219l-103 219l103 217l409 881h-819l307 -662l-100 -217l-408 879z" />
<glyph unicode="w" horiz-adv-x="1568" d="M90 0v274l670 744l485 -541v1024h185v-1501h-3l-667 743zM90 547v954h184v-749z" />
<glyph unicode="x" horiz-adv-x="1196" d="M59 1501h211l224 -385l-107 -182zM61 0l867 1501h213l-434 -751v-2l430 -748h-211l-326 563l-326 -563h-213z" />
<glyph unicode="y" horiz-adv-x="1126" d="M18 1501h213l224 -385l-107 -184zM467 0v748l436 753h197l-434 -753v-748h-199z" />
<glyph unicode="z" horiz-adv-x="1261" d="M74 1317v184h657l-106 -184h-551zM76 0l866 1501h213l-760 -1317h762v-184h-1081z" />
<glyph unicode="&#xad;" d="M90 657v185h578v-185h-578z" />
<glyph unicode="&#x2000;" horiz-adv-x="791" />
<glyph unicode="&#x2001;" horiz-adv-x="1583" />
<glyph unicode="&#x2002;" horiz-adv-x="791" />
<glyph unicode="&#x2003;" horiz-adv-x="1583" />
<glyph unicode="&#x2004;" horiz-adv-x="527" />
<glyph unicode="&#x2005;" horiz-adv-x="395" />
<glyph unicode="&#x2006;" horiz-adv-x="263" />
<glyph unicode="&#x2007;" horiz-adv-x="263" />
<glyph unicode="&#x2008;" horiz-adv-x="197" />
<glyph unicode="&#x2009;" horiz-adv-x="316" />
<glyph unicode="&#x200a;" horiz-adv-x="87" />
<glyph unicode="&#x2010;" d="M90 657v185h578v-185h-578z" />
<glyph unicode="&#x2011;" d="M90 657v185h578v-185h-578z" />
<glyph unicode="&#x2012;" d="M90 657v185h578v-185h-578z" />
<glyph unicode="&#x2013;" horiz-adv-x="1281" d="M90 657v185h1024v-185h-1024z" />
<glyph unicode="&#x2014;" horiz-adv-x="2305" d="M90 657v185h2048v-185h-2048z" />
<glyph unicode="&#x202f;" horiz-adv-x="316" />
<glyph unicode="&#x205f;" horiz-adv-x="395" />
<glyph unicode="&#x25fc;" horiz-adv-x="1505" d="M0 0v1505h1505v-1505h-1505z" />
</font>
</defs>
</svg>
